<svg width="54" height="54" viewBox="0 0 54 54" fill="none" xmlns="http://www.w3.org/2000/svg">
<g clip-path="url(#clip0_15_31)">
<path d="M41.3438 0H12.6562C5.6664 0 0 5.6664 0 12.6562V41.3438C0 48.3336 5.6664 54 12.6562 54H41.3438C48.3336 54 54 48.3336 54 41.3438V12.6562C54 5.6664 48.3336 0 41.3438 0Z" fill="#919191"/>
<path d="M48.0938 38.5883C47.4797 38.821 46.8017 38.8205 46.1879 38.5871C45.5741 38.3537 45.0671 37.9035 44.7628 37.3216C42.8511 34.4598 40.74 31.7271 38.711 28.9358L37.8312 27.763C35.4151 31 32.9991 34.108 30.7941 37.3334C30.5069 37.8895 30.0274 38.3222 29.4448 38.551C28.8622 38.7797 28.2164 38.7888 27.6275 38.5767L36.6936 26.4143L28.2608 15.4244C28.8678 15.2052 29.5319 15.2022 30.1409 15.4159C30.7499 15.6296 31.2665 16.0468 31.6035 16.5972C33.5621 19.4592 35.732 22.1919 37.8899 25.0889C40.0598 22.2153 42.2061 19.4708 44.2117 16.6324C44.5004 16.0853 44.9802 15.6635 45.5598 15.4472C46.1394 15.2309 46.7783 15.2354 47.3548 15.4596L44.0826 19.7993C42.6165 21.7344 41.1739 23.6813 39.6493 25.5697C39.5264 25.6797 39.4281 25.8143 39.3608 25.9649C39.2935 26.1155 39.2587 26.2785 39.2587 26.4435C39.2587 26.6084 39.2935 26.7715 39.3608 26.922C39.4281 27.0726 39.5264 27.2073 39.6493 27.3173C42.4524 31.0353 45.232 34.7648 48.0938 38.5883ZM5.90625 26.2617C6.15262 25.0889 6.30492 23.8104 6.64516 22.6142C8.67417 15.4012 16.9427 12.3985 22.6311 16.8672C25.962 19.4828 26.7948 23.189 26.6306 27.3643H7.86502C7.56 34.8237 12.9433 39.3274 19.8279 37.0286C20.9447 36.6292 21.9445 35.9579 22.7369 35.0753C23.5294 34.1928 24.0895 33.1267 24.3669 31.9735C24.7305 30.8007 25.3169 30.6014 26.4311 30.9414C26.2476 32.3692 25.7427 33.7369 24.9546 34.9415C24.1664 36.1461 23.1154 37.1564 21.8805 37.8964C19.8403 39.0123 17.4994 39.4545 15.1927 39.1595C12.886 38.8646 10.7317 37.8478 9.03783 36.2545C7.36204 34.3702 6.34876 31.9894 6.15262 29.4754C6.15262 29.0767 6.00012 28.6778 5.91806 28.3026C5.9103 27.6223 5.90637 26.942 5.90625 26.2617ZM7.88843 25.7574H24.8596C24.7539 20.3506 21.341 16.5154 16.7904 16.4804C11.7237 16.4099 8.09958 20.1629 7.87662 25.734L7.88843 25.7574Z" fill="#0F0F0F"/>
</g>
<defs>
<clipPath id="clip0_15_31">
<rect width="54" height="54" fill="white"/>
</clipPath>
</defs>
</svg>
