<svg width="55" height="54" viewBox="0 0 55 54" fill="none" xmlns="http://www.w3.org/2000/svg">
<path d="M52.4636 14.9892L54.1406 10.7249L54.0676 10.4608L37.4761 14.7525C39.2451 12.2403 38.6375 10.2254 38.6375 10.2254C38.6375 10.2254 33.339 13.5472 29.3322 13.4603C25.3254 13.3734 24.0337 12.3234 17.89 14.248C11.7464 16.1705 10.01 22.0733 8.22894 23.3415C6.44789 24.6097 0.859375 28.7394 0.859375 28.7394L0.871406 28.8128L5.90949 27.2379C5.90949 27.2379 4.52762 28.5162 1.59199 32.4008L1.45492 32.2764L1.46008 32.3038C1.46008 32.3038 3.81949 35.8442 6.13508 35.1894C6.36754 35.1228 6.62965 35.0139 6.91625 34.8705C7.84867 35.3801 9.06555 35.8813 10.4092 36.0193C10.4092 36.0193 9.49953 34.981 8.7407 33.8002C8.94566 33.6707 9.15578 33.5361 9.36934 33.3998L9.27051 33.4682L11.1891 34.1601L10.9772 32.389C10.9841 32.3857 10.9893 32.3806 10.9961 32.3772L12.8816 33.0573L12.6474 31.4466C12.8829 31.3254 13.1215 31.21 13.3629 31.1006L15.3282 23.8022L23.4549 18.3596L22.8082 19.9547C21.1608 23.933 18.0671 24.8721 18.0671 24.8721L16.7754 25.3526C15.8155 26.4672 15.4107 26.7418 15.0812 30.483C15.8555 30.2919 16.595 30.2459 17.2653 30.4235C20.7376 31.3424 21.9403 35.4502 21.0048 36.5871C20.7707 36.8719 20.2134 37.3575 19.51 37.9287H18.1002L18.0813 39.0504C18.0326 39.0876 17.9846 39.1245 17.9373 39.1614H16.5034L16.4862 40.2557C16.3595 40.3511 16.2327 40.443 16.1111 40.5337C14.7641 40.5612 13.0573 39.4069 13.0573 39.4069C13.0573 40.457 13.9481 42.0727 13.9481 42.0727C13.9481 42.0727 14.007 42.0453 14.1062 41.9977C14.0194 42.0605 13.9709 42.0947 13.9709 42.0947C13.9709 42.0947 17.5768 44.4555 19.8473 43.581C21.8664 42.8039 27.0935 38.7572 31.6057 36.8415L45.2598 33.31L47.0602 28.7301L36.6545 31.4217V27.3088L48.8641 24.1502L50.6645 19.5704L36.6579 23.1943V19.0797L52.4636 14.9892ZM27.683 23.7077L30.9225 22.869L30.9659 23.0276L29.9557 25.5981L26.5981 26.4676L27.683 23.7077ZM28.8011 29.2098L25.4435 30.0793L26.5285 27.3181L29.7679 26.4794L29.8113 26.638L28.8011 29.2098ZM33.1762 28.2876L29.8186 29.157L30.9036 26.3959L34.143 25.5572L34.1864 25.7158L33.1762 28.2876Z" fill="#919191"/>
</svg>
