<svg width="55" height="54" viewBox="0 0 55 54" fill="none" xmlns="http://www.w3.org/2000/svg">
<path d="M13.75 6.75C11.9266 6.75 10.178 7.46116 8.88864 8.72703C7.59933 9.9929 6.875 11.7098 6.875 13.5V40.5C6.875 42.2902 7.59933 44.0071 8.88864 45.273C10.178 46.5388 11.9266 47.25 13.75 47.25H41.25C43.0734 47.25 44.822 46.5388 46.1114 45.273C47.4007 44.0071 48.125 42.2902 48.125 40.5V13.5C48.125 11.7098 47.4007 9.9929 46.1114 8.72703C44.822 7.46116 43.0734 6.75 41.25 6.75H13.75ZM30.5571 36.1238C32.2071 37.4288 33.854 38.0723 35.4979 38.0543C36.5063 38.0543 37.2793 37.8727 37.8171 37.5097C38.0675 37.3502 38.2712 37.1293 38.4082 36.8689C38.5453 36.6085 38.6109 36.3176 38.5985 36.0247C38.602 35.7053 38.5341 35.3891 38.3994 35.0982C38.2648 34.8074 38.0668 34.5492 37.8194 34.3417C37.2816 33.8812 36.2641 33.4193 34.7669 32.9558C32.9687 32.4458 31.5822 31.7858 30.6075 30.9757C29.6511 30.1658 29.1638 29.0355 29.1454 27.585C29.1454 26.2155 29.7504 25.0688 30.9604 24.1448C32.1368 23.2208 33.6417 22.7587 35.475 22.7587C38.0294 22.7587 40.079 23.3692 41.6235 24.5903L39.859 27.288C39.2236 26.803 38.4947 26.4494 37.7163 26.2485C37.0167 26.0184 36.2859 25.8932 35.5483 25.8773C34.6775 25.8773 33.9801 26.034 33.456 26.3475C32.9366 26.6625 32.6769 27.075 32.6769 27.585C32.6769 28.146 32.9954 28.6245 33.6325 29.0205C34.2742 29.4015 35.3665 29.8222 36.9096 30.2827C38.775 30.8272 40.1026 31.5532 40.8925 32.4608C41.6824 33.3682 42.0773 34.5233 42.0773 35.9258C42.0773 37.3612 41.5143 38.5988 40.3883 39.6383C39.2792 40.6613 37.6658 41.1975 35.5483 41.247C32.7754 41.247 30.4563 40.4302 28.5908 38.7967L30.5571 36.1238ZM17.8842 37.5593C18.4219 37.8893 19.069 38.0543 19.8252 38.0543C20.6151 38.0543 21.2705 37.8315 21.7915 37.386C22.3109 36.924 22.5714 36.1237 22.5729 34.9852V23.0557H25.976V35.6287C25.9256 37.5758 25.3542 38.9782 24.2619 39.8363C23.6642 40.3324 22.9692 40.703 22.22 40.9252C21.5252 41.133 20.8036 41.2413 20.0773 41.247C18.8169 41.247 17.6993 41.0325 16.7246 40.6035C15.6826 40.143 14.8087 39.3263 14.1029 38.1533L16.4725 36.2475C16.9079 36.825 17.3785 37.2623 17.8842 37.5593Z" fill="#919191"/>
</svg>
