<svg width="196" height="30" viewBox="0 0 196 30" fill="none" xmlns="http://www.w3.org/2000/svg">
<path d="M27.1695 6.43384H32.6726C34.2797 6.43384 35.6755 6.62146 36.86 6.99671C38.0445 7.37196 39.0241 7.9105 39.7988 8.61235C40.58 9.30726 41.1594 10.155 41.5372 11.1557C41.9213 12.1494 42.1134 13.2682 42.1134 14.5121C42.1134 15.6934 41.9245 16.7879 41.5468 17.7955C41.169 18.7961 40.5928 19.6648 39.818 20.4014C39.0433 21.131 38.0637 21.7043 36.8792 22.1212C35.6947 22.5312 34.2989 22.7362 32.6918 22.7362L27.1695 22.7258V6.43384ZM33.4218 19.8698C34.3309 19.8698 35.1281 19.7447 35.8132 19.4945C36.4982 19.2374 37.0681 18.8761 37.5227 18.4105C37.9837 17.9449 38.3294 17.382 38.5599 16.7219C38.7904 16.0617 38.9056 15.3251 38.9056 14.5121C38.9056 13.7129 38.7904 12.9937 38.5599 12.3544C38.3294 11.7081 37.9837 11.1626 37.5227 10.7179C37.0681 10.2662 36.4982 9.91877 35.8132 9.67555C35.1281 9.43234 34.3309 9.31073 33.4218 9.31073H30.214V19.8698H33.4218Z" fill="white"/>
<path d="M16.3017 6.43384H19.2214L24.4529 12.379V12.537V16.718L19.2214 11.0127V22.7362H16.3017V6.43384Z" fill="white"/>
<path d="M50.8379 21.449V22.2037C50.8379 23.178 50.7238 24.0365 50.4955 24.7792C50.2747 25.522 49.9249 26.1449 49.4463 26.648C48.9677 27.1512 48.3566 27.5305 47.6129 27.7861C46.8693 28.0417 45.9784 28.1694 44.9402 28.1694H43.4713V25.6178H44.9402C45.4114 25.6178 45.8348 25.5499 46.2103 25.4142C46.5932 25.2784 46.9171 25.0668 47.1822 24.7792C47.4473 24.4997 47.6497 24.1483 47.7896 23.7251C47.9295 23.2938 47.9995 22.7867 47.9995 22.2037V21.4969C47.9995 19.7159 48.2682 18.2584 48.8057 17.1244C49.3506 15.9823 50.1495 15.1358 51.2024 14.5847C50.1495 14.0337 49.3506 13.1911 48.8057 12.057C48.2682 10.915 47.9995 9.45351 47.9995 7.67256V6.96578C47.9995 6.38277 47.9295 5.87964 47.7896 5.45636C47.6497 5.0251 47.4473 4.66971 47.1822 4.39019C46.9171 4.10268 46.5932 3.89105 46.2103 3.75528C45.8348 3.61951 45.4114 3.55163 44.9402 3.55163H43.4713V1H44.9402C45.9784 1 46.8693 1.12778 47.6129 1.38334C48.3566 1.6389 48.9677 2.01825 49.4463 2.52139C49.9249 3.02453 50.2747 3.64746 50.4955 4.39019C50.7238 5.13292 50.8379 5.99145 50.8379 6.96578V7.72048C50.8379 8.51911 50.9336 9.27382 51.1251 9.9846C51.3239 10.6954 51.6221 11.3463 52.0197 11.9373C52.4173 12.5203 52.9216 13.0354 53.5328 13.4826C54.1439 13.9298 54.8655 14.2972 55.6975 14.5847C54.8655 14.8722 54.1439 15.2436 53.5328 15.6988C52.9216 16.146 52.4173 16.6652 52.0197 17.2561C51.6221 17.8391 51.3239 18.486 51.1251 19.1968C50.9336 19.8996 50.8379 20.6503 50.8379 21.449Z" fill="#1D4ED8"/>
<path d="M5.39953 7.72048L5.39953 6.96578C5.39953 5.99144 5.52633 5.13292 5.77995 4.39019C6.02538 3.64746 6.41398 3.02453 6.94575 2.52139C7.47753 2.01825 8.15656 1.6389 8.98285 1.38334C9.80914 1.12778 10.7991 1 11.9526 1L13.5847 1V3.55163L11.9526 3.55163C11.429 3.55163 10.9586 3.61951 10.5413 3.75528C10.1159 3.89104 9.75596 4.10268 9.46144 4.39019C9.16692 4.66971 8.94194 5.02111 8.7865 5.44438C8.63106 5.87564 8.55334 6.38277 8.55334 6.96578V7.67256C8.55334 9.45351 8.25473 10.911 7.65751 12.0451C7.05211 13.1871 6.16446 14.0337 4.99456 14.5847C6.16446 15.1358 7.05211 15.9783 7.65751 17.1124C8.25473 18.2544 8.55334 19.7159 8.55334 21.4969V22.2037C8.55334 22.7867 8.63106 23.2898 8.7865 23.7131C8.94194 24.1443 9.16692 24.4997 9.46144 24.7792C9.75596 25.0668 10.1159 25.2784 10.5413 25.4142C10.9586 25.5499 11.429 25.6178 11.9526 25.6178H13.5847V28.1694H11.9526C10.7991 28.1694 9.80914 28.0417 8.98285 27.7861C8.15656 27.5305 7.47752 27.1512 6.94575 26.648C6.41398 26.1449 6.02538 25.522 5.77995 24.7792C5.52633 24.0365 5.39952 23.178 5.39952 22.2037L5.39953 21.449C5.39953 20.6503 5.29317 19.8956 5.08046 19.1848C4.85957 18.4741 4.52824 17.8232 4.08646 17.2322C3.64468 16.6492 3.08427 16.1341 2.40524 15.6868C1.72621 15.2396 0.924464 14.8722 0 14.5847C0.924464 14.2972 1.72621 13.9258 2.40524 13.4706C3.08427 13.0234 3.64468 12.5043 4.08646 11.9133C4.52824 11.3303 4.85957 10.6834 5.08046 9.97262C5.29317 9.26982 5.39953 8.51911 5.39953 7.72048Z" fill="#1D4ED8"/>
<path d="M84.6 8.04V22H81.8V12.92L78.06 22H75.94L72.18 12.92V22H69.38V8.04H72.56L77 18.42L81.44 8.04H84.6ZM93.8483 22.14C92.5416 22.14 91.3416 21.8333 90.2483 21.22C89.1549 20.6067 88.2883 19.76 87.6483 18.68C87.0083 17.5867 86.6883 16.3533 86.6883 14.98C86.6883 13.62 87.0083 12.4 87.6483 11.32C88.2883 10.2267 89.1549 9.37333 90.2483 8.76C91.3416 8.14667 92.5416 7.84 93.8483 7.84C95.1683 7.84 96.3683 8.14667 97.4483 8.76C98.5416 9.37333 99.4016 10.2267 100.028 11.32C100.668 12.4 100.988 13.62 100.988 14.98C100.988 16.3533 100.668 17.5867 100.028 18.68C99.4016 19.76 98.5416 20.6067 97.4483 21.22C96.3549 21.8333 95.1549 22.14 93.8483 22.14ZM93.8483 19.64C94.6883 19.64 95.4283 19.4533 96.0683 19.08C96.7083 18.6933 97.2083 18.1467 97.5683 17.44C97.9283 16.7333 98.1083 15.9133 98.1083 14.98C98.1083 14.0467 97.9283 13.2333 97.5683 12.54C97.2083 11.8333 96.7083 11.2933 96.0683 10.92C95.4283 10.5467 94.6883 10.36 93.8483 10.36C93.0083 10.36 92.2616 10.5467 91.6083 10.92C90.9683 11.2933 90.4683 11.8333 90.1083 12.54C89.7483 13.2333 89.5683 14.0467 89.5683 14.98C89.5683 15.9133 89.7483 16.7333 90.1083 17.44C90.4683 18.1467 90.9683 18.6933 91.6083 19.08C92.2616 19.4533 93.0083 19.64 93.8483 19.64ZM110.271 22L107.191 16.56H105.871V22H103.071V8.04H108.311C109.391 8.04 110.311 8.23333 111.071 8.62C111.831 8.99333 112.398 9.50667 112.771 10.16C113.158 10.8 113.351 11.52 113.351 12.32C113.351 13.24 113.085 14.0733 112.551 14.82C112.018 15.5533 111.225 16.06 110.171 16.34L113.511 22H110.271ZM105.871 14.46H108.211C108.971 14.46 109.538 14.28 109.911 13.92C110.285 13.5467 110.471 13.0333 110.471 12.38C110.471 11.74 110.285 11.2467 109.911 10.9C109.538 10.54 108.971 10.36 108.211 10.36H105.871V14.46ZM124.444 19.34H118.884L117.964 22H115.024L120.044 8.02H123.304L128.324 22H125.364L124.444 19.34ZM123.684 17.1L121.664 11.26L119.644 17.1H123.684ZM133 10.3V13.8H137.7V16.02H133V19.72H138.3V22H130.2V8.02H138.3V10.3H133ZM145.665 22.14C144.692 22.14 143.812 21.9733 143.025 21.64C142.252 21.3067 141.638 20.8267 141.185 20.2C140.732 19.5733 140.498 18.8333 140.485 17.98H143.485C143.525 18.5533 143.725 19.0067 144.085 19.34C144.458 19.6733 144.965 19.84 145.605 19.84C146.258 19.84 146.772 19.6867 147.145 19.38C147.518 19.06 147.705 18.6467 147.705 18.14C147.705 17.7267 147.578 17.3867 147.325 17.12C147.072 16.8533 146.752 16.6467 146.365 16.5C145.992 16.34 145.472 16.1667 144.805 15.98C143.898 15.7133 143.158 15.4533 142.585 15.2C142.025 14.9333 141.538 14.54 141.125 14.02C140.725 13.4867 140.525 12.78 140.525 11.9C140.525 11.0733 140.732 10.3533 141.145 9.74C141.558 9.12667 142.138 8.66 142.885 8.34C143.632 8.00667 144.485 7.84 145.445 7.84C146.885 7.84 148.052 8.19333 148.945 8.9C149.852 9.59333 150.352 10.5667 150.445 11.82H147.365C147.338 11.34 147.132 10.9467 146.745 10.64C146.372 10.32 145.872 10.16 145.245 10.16C144.698 10.16 144.258 10.3 143.925 10.58C143.605 10.86 143.445 11.2667 143.445 11.8C143.445 12.1733 143.565 12.4867 143.805 12.74C144.058 12.98 144.365 13.18 144.725 13.34C145.098 13.4867 145.618 13.66 146.285 13.86C147.192 14.1267 147.932 14.3933 148.505 14.66C149.078 14.9267 149.572 15.3267 149.985 15.86C150.398 16.3933 150.605 17.0933 150.605 17.96C150.605 18.7067 150.412 19.4 150.025 20.04C149.638 20.68 149.072 21.1933 148.325 21.58C147.578 21.9533 146.692 22.14 145.665 22.14ZM162.678 8.04C164.145 8.04 165.431 8.32667 166.538 8.9C167.658 9.47333 168.518 10.2933 169.118 11.36C169.731 12.4133 170.038 13.64 170.038 15.04C170.038 16.44 169.731 17.6667 169.118 18.72C168.518 19.76 167.658 20.5667 166.538 21.14C165.431 21.7133 164.145 22 162.678 22H157.798V8.04H162.678ZM162.578 19.62C164.045 19.62 165.178 19.22 165.978 18.42C166.778 17.62 167.178 16.4933 167.178 15.04C167.178 13.5867 166.778 12.4533 165.978 11.64C165.178 10.8133 164.045 10.4 162.578 10.4H160.598V19.62H162.578ZM174.934 10.3V13.8H179.634V16.02H174.934V19.72H180.234V22H172.134V8.02H180.234V10.3H174.934ZM195.318 8.04L190.198 22H186.798L181.678 8.04H184.678L188.518 19.14L192.338 8.04H195.318Z" fill="white"/>
</svg>
