<svg width="51" height="24" viewBox="0 0 51 24" fill="none" xmlns="http://www.w3.org/2000/svg">
<path d="M24.9 4.8H29.7609C31.1805 4.8 32.4134 4.96573 33.4596 5.29719C34.5059 5.62864 35.3712 6.10435 36.0555 6.7243C36.7455 7.33811 37.2573 8.08696 37.591 8.97084C37.9303 9.84859 38.1 10.8368 38.1 11.9355C38.1 12.979 37.9332 13.9458 37.5995 14.8358C37.2658 15.7197 36.7568 16.487 36.0725 17.1376C35.3882 17.7821 34.5229 18.2885 33.4766 18.6568C32.4303 19.0189 31.1974 19.2 29.7779 19.2L24.9 19.1908V4.8ZM30.4226 16.668C31.2257 16.668 31.9298 16.5575 32.535 16.3366C33.1401 16.1095 33.6434 15.7903 34.045 15.379C34.4522 14.9678 34.7576 14.4706 34.9612 13.8875C35.1648 13.3043 35.2666 12.6537 35.2666 11.9355C35.2666 11.2297 35.1648 10.5944 34.9612 10.0297C34.7576 9.45882 34.4522 8.97698 34.045 8.58414C33.6434 8.18517 33.1401 7.87826 32.535 7.66343C31.9298 7.44859 31.2257 7.34118 30.4226 7.34118H27.5892V16.668H30.4226Z" fill="white"/>
<path d="M15.3 4.8H17.879L22.5 10.0514V10.191V13.8841L17.879 8.84453V19.2H15.3V4.8Z" fill="white"/>
<path d="M45.8073 18.0635V18.7302C45.8073 19.5908 45.7065 20.3492 45.5049 21.0053C45.3097 21.6614 45.0008 22.2116 44.578 22.6561C44.1553 23.1005 43.6154 23.4356 42.9585 23.6614C42.3016 23.8871 41.5146 24 40.5975 24H39.3V21.746H40.5975C41.0138 21.746 41.3878 21.6861 41.7195 21.5661C42.0577 21.4462 42.3439 21.2593 42.578 21.0053C42.8122 20.7584 42.991 20.448 43.1146 20.0741C43.2382 19.6931 43.3 19.2451 43.3 18.7302V18.1058C43.3 16.5326 43.5374 15.2452 44.0122 14.2434C44.4935 13.2346 45.1992 12.4868 46.1293 12C45.1992 11.5132 44.4935 10.769 44.0122 9.7672C43.5374 8.75838 43.3 7.46737 43.3 5.89418V5.26984C43.3 4.75485 43.2382 4.31041 43.1146 3.93651C42.991 3.55556 42.8122 3.24162 42.578 2.99471C42.3439 2.74074 42.0577 2.55379 41.7195 2.43386C41.3878 2.31393 41.0138 2.25397 40.5975 2.25397H39.3V0H40.5975C41.5146 0 42.3016 0.112875 42.9585 0.338624C43.6154 0.564374 44.1553 0.899471 44.578 1.34392C45.0008 1.78836 45.3097 2.33862 45.5049 2.99471C45.7065 3.65079 45.8073 4.40917 45.8073 5.26984V5.93651C45.8073 6.64198 45.8919 7.30864 46.061 7.93651C46.2366 8.56437 46.5 9.13933 46.8512 9.66138C47.2024 10.1764 47.648 10.6314 48.1878 11.0265C48.7276 11.4215 49.365 11.746 50.1 12C49.365 12.254 48.7276 12.582 48.1878 12.9841C47.648 13.3792 47.2024 13.8377 46.8512 14.3598C46.5 14.8748 46.2366 15.4462 46.061 16.0741C45.8919 16.6949 45.8073 17.358 45.8073 18.0635Z" fill="#1D4ED8"/>
<path d="M5.66964 5.93651L5.66964 5.26984C5.66964 4.40917 5.78166 3.65079 6.00569 2.99471C6.22249 2.33862 6.56576 1.78836 7.0355 1.34391C7.50523 0.899471 8.10505 0.564374 8.83495 0.338624C9.56485 0.112875 10.4393 -8.69602e-08 11.4583 0L12.9 1.2304e-07V2.25397L11.4583 2.25397C10.9957 2.25397 10.5802 2.31393 10.2116 2.43386C9.83586 2.55379 9.51788 2.74074 9.25772 2.99471C8.99755 3.24162 8.79882 3.55203 8.66151 3.92593C8.5242 4.30688 8.45555 4.75485 8.45555 5.26984V5.89418C8.45555 7.46737 8.19177 8.75485 7.66422 9.75661C7.12944 10.7654 6.34534 11.5132 5.31192 12C6.34534 12.4868 7.12944 13.231 7.66422 14.2328C8.19177 15.2416 8.45555 16.5326 8.45555 18.1058V18.7302C8.45555 19.2451 8.5242 19.6896 8.66151 20.0635C8.79882 20.4444 8.99755 20.7584 9.25772 21.0053C9.51788 21.2593 9.83585 21.4462 10.2116 21.5661C10.5802 21.6861 10.9957 21.746 11.4583 21.746H12.9V24H11.4583C10.4393 24 9.56485 23.8871 8.83495 23.6614C8.10505 23.4356 7.50523 23.1005 7.03549 22.6561C6.56576 22.2116 6.22249 21.6614 6.00568 21.0053C5.78165 20.3492 5.66964 19.5908 5.66964 18.7302V18.0635C5.66964 17.358 5.57569 16.6914 5.3878 16.0635C5.19268 15.4356 4.89999 14.8607 4.50975 14.3386C4.11951 13.8236 3.62447 13.3686 3.02465 12.9735C2.42484 12.5785 1.71662 12.254 0.899994 12C1.71662 11.746 2.42484 11.418 3.02465 11.0159C3.62447 10.6208 4.11951 10.1623 4.50975 9.64021C4.89999 9.12522 5.19268 8.55379 5.3878 7.92593C5.57569 7.30511 5.66964 6.64197 5.66964 5.93651Z" fill="#1D4ED8"/>
</svg>
