<svg width="55" height="54" viewBox="0 0 55 54" fill="none" xmlns="http://www.w3.org/2000/svg">
<g clip-path="url(#clip0_15_37)">
<path d="M32.4555 7.79645C31.456 6.25175 31.7757 5.23314 32.3273 4.18151C32.8211 3.24009 33.0228 1.60406 31.278 0.316606C32.8845 -0.263999 35.4195 0.762528 35.4631 2.64272C34.5309 3.90202 31.9846 4.40246 32.4555 7.79645ZM43.9895 42.5077C43.2096 44.9898 43.5652 46.3105 40.1733 51.4641C46.1706 47.489 49.0001 42.3569 49.9339 36.5321C50.5202 38.961 50.5757 41.1641 50.3454 43.2459C55.3151 36.8221 58.7203 23.8683 47.2668 10.8469C46.806 16.6027 41.1364 21.1347 34.5977 19.3576C45.8089 18.1442 46.5276 4.14744 36.8961 0.915458C37.0842 4.80936 31.6731 3.53425 33.2644 8.74356C27.7528 5.68191 15.7107 5.05268 10.9235 9.69763C8.45556 12.0922 6.77097 14.0726 3.68656 14.2035C1.13991 14.3115 -2.22304 18.3688 2.15247 20.4438C2.57034 22.173 4.03901 23.1576 4.89065 23.3273C4.67871 26.4064 5.34591 24.8365 6.32345 23.4943C5.99495 27.3866 6.53636 25.9844 8.06841 23.9819C21.031 21.408 28.1896 31.787 28.2706 38.1617C28.2137 37.0052 26.3304 35.66 25.3339 36.0305C24.6606 37.4312 23.9269 38.6199 23.0214 39.2064C23.1161 38.2778 23.0515 37.3491 22.8796 36.4206C22.581 37.5435 22.0189 38.7095 21.1204 39.9307C19.3331 40.0286 16.8318 38.7235 17.5593 36.5599C18.5858 34.4558 16.5726 34.0183 14.9507 34.6206C13.732 35.0733 12.9084 36.3269 12.7958 36.7167C12.3892 38.1227 12.523 41.2618 15.3037 43.3433C14.5747 43.4752 13.8263 43.5926 13.3175 43.8865C18.0476 46.6952 22.8757 45.7462 25.5642 44.6864C29.9661 42.9511 33.0022 38.1479 33.4772 34.4427C34.699 39.6543 32.5101 45.4465 27.6036 48.5529C29.0055 48.6986 31.7493 47.7662 34.5552 46.7839C32.4341 49.4048 29.8986 51.8901 25.7451 53.8459C33.9261 53.173 39.9101 49.1401 43.9896 42.5077" fill="#919191"/>
</g>
<defs>
<clipPath id="clip0_15_37">
<rect width="55" height="54" fill="white"/>
</clipPath>
</defs>
</svg>
