<svg width="55" height="54" viewBox="0 0 55 54" fill="none" xmlns="http://www.w3.org/2000/svg">
<g clip-path="url(#clip0_15_21)">
<path d="M27.5 53.901C26.7163 53.901 25.9875 53.7007 25.3069 53.3542L18.3654 49.4437C17.3227 48.8992 17.8452 48.7012 18.1592 48.6022C19.5663 48.1567 19.8275 48.0577 21.2896 47.2635C21.4454 47.1645 21.6563 47.214 21.8121 47.313L27.1356 50.3347C27.3419 50.4337 27.6054 50.4337 27.7613 50.3347L48.5856 38.8957C48.7919 38.7967 48.8973 38.5987 48.8973 38.3512V15.5227C48.8973 15.2752 48.7942 15.0772 48.5856 14.9782L27.7613 3.59095C27.5527 3.49195 27.2915 3.49195 27.1356 3.59095L6.31127 14.9782C6.10273 15.0772 5.99731 15.3247 5.99731 15.5227V38.3512C5.99731 38.5492 6.10273 38.7967 6.31127 38.8957L11.9992 42.0165C15.0792 43.5015 17.0088 41.769 17.0088 40.0365V17.505C17.0088 17.208 17.27 16.911 17.6367 16.911H20.2973C20.6113 16.911 20.9229 17.1585 20.9229 17.505V40.0342C20.9229 43.947 18.6794 46.224 14.7652 46.224C13.5644 46.224 12.6248 46.224 9.96419 44.9865L4.48481 42.0165C3.82502 41.6594 3.27404 41.1362 2.88857 40.5007C2.5031 39.8652 2.29707 39.1403 2.29169 38.4007V15.5722C2.29169 14.0872 3.12585 12.7012 4.48481 11.9587L25.3092 0.517454C25.9874 0.176985 26.7383 -0.000549316 27.5 -0.000549316C28.2618 -0.000549316 29.0126 0.176985 29.6909 0.517454L50.5175 11.9565C51.8742 12.699 52.7084 14.085 52.7084 15.57V38.3985C52.7084 39.8835 51.8742 41.2695 50.5175 42.0142L29.6931 53.451C29.001 53.7456 28.2544 53.8972 27.5 53.8965M33.919 38.1982C24.7867 38.1982 22.9075 34.2382 22.9075 30.87C22.9075 30.573 23.1688 30.276 23.5331 30.276H26.2465C26.5604 30.276 26.8194 30.474 26.8194 30.771C27.2388 33.3945 28.4396 34.6814 33.9717 34.6814C38.3556 34.6814 40.2348 33.741 40.2348 31.5135C40.2348 30.2265 39.7123 29.286 32.8763 28.6425C27.1861 28.0957 23.6386 26.91 23.6386 22.6012C23.6386 18.5895 27.1861 16.2112 33.1375 16.2112C39.8177 16.2112 43.1063 18.3915 43.5234 23.1457C43.5183 23.3066 43.4631 23.4621 43.3652 23.5912C43.2621 23.6902 43.1063 23.7892 42.9481 23.7892H40.2348C40.103 23.7861 39.9758 23.7409 39.8725 23.6605C39.7691 23.5802 39.6952 23.469 39.6619 23.3437C39.034 20.6212 37.4161 19.728 33.1375 19.728C28.3342 19.728 27.7613 21.312 27.7613 22.5022C27.7613 23.9377 28.4396 24.3832 34.9113 25.1752C41.3302 25.9672 44.3575 27.1057 44.3575 31.3627C44.3048 35.7232 40.5488 38.1982 33.919 38.1982Z" fill="#919191"/>
</g>
<defs>
<clipPath id="clip0_15_21">
<rect width="55" height="54" fill="white"/>
</clipPath>
</defs>
</svg>
