<svg width="54" height="54" viewBox="0 0 54 54" fill="none" xmlns="http://www.w3.org/2000/svg">
<path d="M37.8113 2.25C35.8309 2.26853 33.8616 2.54845 31.9545 3.0825L31.8195 3.123C30.6187 2.91711 29.4039 2.80352 28.1858 2.78325C25.6815 2.7405 23.5283 3.33 21.7958 4.31325C20.0858 3.73725 16.5398 2.745 12.8025 2.943C10.1993 3.08025 7.35979 3.8475 5.25604 6.003C3.15679 8.1585 2.04754 11.493 2.28154 16.0312C2.34454 17.2845 2.71129 19.3253 3.32329 21.9713C3.93079 24.615 4.79029 27.7087 5.85904 30.5325C6.92779 33.3562 8.10004 35.8965 9.93154 37.62C10.845 38.484 12.1028 39.2108 13.5855 39.15C14.6273 39.1095 15.57 38.6662 16.3823 38.0115C16.7783 38.5177 17.2013 38.7383 17.586 38.943C18.0698 39.1995 18.5423 39.375 19.0305 39.492C20.3826 39.8387 21.7909 39.9084 23.1705 39.6968C23.7713 39.6 24.4035 39.411 25.0335 39.141C25.056 39.8205 25.083 40.4865 25.1123 41.1615C25.1978 43.299 25.254 45.2722 25.9155 47.0025C26.0213 47.286 26.3115 48.7417 27.4613 50.0265C28.6088 51.3135 30.8588 52.1145 33.4193 51.5835C35.226 51.2078 37.5255 50.5305 39.051 48.4245C40.5585 46.341 41.2403 43.353 41.3753 38.5043C41.409 38.2433 41.4495 38.0205 41.4923 37.8112L41.8523 37.8428H41.8928C43.821 37.9282 45.9135 37.6628 47.6618 36.8753C49.2098 36.1777 50.3798 35.4757 51.2325 34.227C51.4463 33.9187 51.6803 33.5452 51.7433 32.8995C51.8063 32.2582 51.4283 31.2502 50.796 30.7867C49.5293 29.8552 48.735 30.2085 47.8823 30.3818C47.0423 30.5618 46.1903 30.6615 45.3263 30.681C47.7855 26.667 49.5473 22.401 50.553 18.6255C51.147 16.398 51.4823 14.3438 51.5093 12.5483C51.5363 10.7528 51.3855 9.162 50.2763 7.785C46.809 3.4875 41.9333 2.2995 38.1623 2.259C38.0453 2.256 37.9283 2.25525 37.8113 2.25675V2.25ZM37.7123 3.57075C41.2785 3.537 45.837 4.509 49.1085 8.56575C49.8443 9.477 50.0625 10.809 50.0378 12.4515C50.0108 14.0918 49.698 16.0537 49.1265 18.2047C48.0173 22.3717 45.9203 27.2272 42.966 31.5877C43.0709 31.6605 43.1843 31.7201 43.3035 31.7655C43.92 32.013 45.324 32.2245 48.1298 31.6665C48.834 31.5203 49.3515 31.4235 49.887 31.8195C50.0152 31.9259 50.117 32.0604 50.1845 32.2126C50.252 32.3648 50.2835 32.5306 50.2763 32.697C50.2465 32.9483 50.1511 33.1873 49.9995 33.39C49.4595 34.1798 48.3885 34.929 47.016 35.5455C45.8033 36.0945 44.0618 36.3802 42.5183 36.3983C41.7443 36.405 41.031 36.3465 40.4258 36.1642L40.3853 36.1507C40.1513 38.3355 39.6135 42.6533 39.2648 44.622C38.9835 46.2105 38.493 47.4727 37.5548 48.4177C36.6188 49.3627 35.2958 49.932 33.5138 50.3032C31.3065 50.7622 29.6978 50.2673 28.6605 49.419C27.6255 48.5753 27.1508 47.4525 26.865 46.764C26.6693 46.2915 26.568 45.6773 26.469 44.856C26.3602 43.8727 26.2874 42.8858 26.2508 41.8973C26.1862 40.1641 26.1652 38.4295 26.1878 36.6953C25.2653 37.512 24.1178 38.0565 22.887 38.2612C21.4245 38.502 20.115 38.2658 19.3343 38.0768C18.9515 37.9824 18.5814 37.8427 18.2318 37.6605C17.8673 37.4738 17.523 37.2622 17.2935 36.8438C17.1583 36.6049 17.1151 36.3248 17.172 36.0562C17.2457 35.7835 17.409 35.5434 17.6355 35.3745C18.0585 35.0415 18.6143 34.857 19.4535 34.686C20.9835 34.3823 21.5168 34.173 21.8408 33.9232C22.1175 33.7095 22.4303 33.2775 22.9838 32.6408L22.977 32.5575C21.9906 32.5285 21.0236 32.2762 20.1488 31.8195C19.8315 32.1435 18.2025 33.8153 16.2158 36.1328C15.381 37.1025 14.4585 37.6582 13.4843 37.6987C12.51 37.7392 11.6303 37.2623 10.8833 36.5602C9.38704 35.1518 8.19454 32.7285 7.15504 29.9903C6.12004 27.2498 5.27404 24.1988 4.67554 21.6C4.07254 19.0013 3.71704 16.9065 3.66754 15.8962C3.44254 11.601 4.47754 8.7075 6.25504 6.88275C8.03254 5.058 10.467 4.365 12.843 4.2345C17.1045 3.996 21.1523 5.43825 21.9713 5.74875C23.5485 4.70925 25.5803 4.06125 28.1205 4.10175C29.3246 4.11849 30.523 4.26943 31.6935 4.55175L31.7363 4.53375C32.2523 4.35825 32.7758 4.21125 33.3068 4.09275C34.7524 3.76646 36.2282 3.59301 37.71 3.57525L37.7123 3.57075ZM38.034 4.95225H37.7258C36.5084 4.96865 35.2954 5.10125 34.1033 5.34825C36.4697 6.37893 38.5488 7.97149 40.1603 9.98775C41.1365 11.194 41.9463 12.5259 42.5678 13.9478C42.8018 14.4922 42.9593 14.9535 43.047 15.309C43.092 15.489 43.1235 15.6397 43.1325 15.7972C43.1409 15.8969 43.1325 15.9973 43.1078 16.0942L43.0943 16.1213C43.1595 17.928 42.6983 19.152 42.642 20.8755C42.5993 22.1265 42.9278 23.5957 43.0088 25.1955C43.0853 26.703 42.8985 28.3568 41.8905 29.9812C41.9745 30.0802 42.0555 30.1792 42.1335 30.2782C44.7998 26.2057 46.7235 21.6968 47.7473 17.856C48.294 15.786 48.5865 13.9117 48.6113 12.4267C48.6338 10.9417 48.348 9.864 47.9835 9.41625C45.1305 5.877 41.2718 4.977 38.034 4.95225ZM27.8528 5.47875C25.3395 5.48325 23.535 6.22125 22.1693 7.32375C20.7585 8.4645 19.8135 10.0237 19.1925 11.6235C18.5915 13.2222 18.2239 14.8992 18.1013 16.6028L18.1305 16.587C18.8888 16.173 19.8855 15.7613 20.952 15.5228C22.0208 15.2843 23.1705 15.21 24.2123 15.6015C25.254 15.993 26.1158 16.9155 26.4285 18.315C27.9248 25.0335 25.9628 27.531 25.2383 29.4142C24.9665 30.0977 24.7322 30.7955 24.5363 31.5045C24.6263 31.479 24.717 31.461 24.8085 31.4505C25.2038 31.4291 25.5981 31.5064 25.956 31.6755C26.685 31.968 27.1845 32.58 27.4545 33.282C27.525 33.468 27.5753 33.663 27.6053 33.867C27.6353 33.9525 27.6495 34.0402 27.648 34.1302C27.5672 36.6993 27.5762 39.2703 27.675 41.8387C27.7245 42.9502 27.7965 43.9267 27.8888 44.6985C27.9788 45.468 28.1093 46.053 28.1925 46.251C28.4625 46.9125 28.8608 47.7765 29.5808 48.3638C30.3008 48.951 31.329 49.3402 33.2123 48.9487C34.8458 48.609 35.8538 48.1387 36.5288 47.457C37.1993 46.7797 37.602 45.837 37.8585 44.3903C38.2433 42.2235 39.0173 35.9438 39.1095 34.7603C39.069 33.8715 39.204 33.1853 39.4965 32.6632C39.8003 32.1278 40.2683 31.7992 40.671 31.6215C40.8735 31.5315 41.0625 31.473 41.2178 31.4303C41.0523 31.2014 40.8798 30.9778 40.7003 30.7597C40.1185 30.0791 39.6414 29.3154 39.285 28.494C39.1133 28.1561 38.931 27.8237 38.7383 27.4972C38.457 27.0022 38.0993 26.3835 37.7258 25.6882C36.9765 24.2955 36.162 22.608 35.739 20.9633C35.3183 19.323 35.2553 17.6243 36.3353 16.425C37.2938 15.3608 38.9723 14.9198 41.4945 15.1673C41.4203 14.9513 41.3753 14.7712 41.2493 14.4832C40.6801 13.176 39.9361 11.952 39.0375 10.845C36.9 8.1945 33.4418 5.5665 28.0958 5.481H27.8528V5.47875ZM13.7318 5.5845C13.4618 5.5845 13.1918 5.592 12.9218 5.607C10.7753 5.72625 8.74579 6.3315 7.29454 7.8255C5.83879 9.31725 4.88254 11.7653 5.08954 15.8197C5.13229 16.5848 5.47654 18.7358 6.06604 21.2873C6.65554 23.8433 7.49254 26.847 8.49604 29.4998C9.49954 32.1548 10.719 34.4655 11.8755 35.559C12.4583 36.1058 12.9645 36.3262 13.4235 36.3082C13.8848 36.2857 14.4383 36.0293 15.1178 35.2395C16.3553 33.7914 17.6384 32.3829 18.9653 31.0163C18.0278 30.2301 17.3061 29.218 16.8683 28.0755C16.4341 26.9439 16.3022 25.7186 16.4858 24.5205C16.704 22.995 16.7333 21.5685 16.7085 20.4435C16.6815 19.3455 16.6005 18.6165 16.6005 18.1597V18.0968C16.5982 15.7188 17.0243 13.3599 17.8583 11.133C18.4523 9.5985 19.3388 8.03925 20.6685 6.777C19.3635 6.36075 17.046 5.72625 14.5373 5.607C14.2675 5.59255 13.9974 5.58505 13.7273 5.5845H13.7318ZM40.0883 16.479C38.646 16.497 37.836 16.8593 37.4108 17.3317C36.8078 18.0022 36.7515 19.1768 37.125 20.6257C37.4985 22.0747 38.2658 23.697 38.9903 25.0425C39.3503 25.7175 39.7013 26.325 39.9848 26.8155C40.2705 27.3105 40.4798 27.6615 40.6058 27.963C40.7258 28.2345 40.8518 28.4827 40.9838 28.7078C41.5418 27.5625 41.643 26.4397 41.5845 25.2675C41.5103 23.8185 41.1638 22.3358 41.2155 20.835C41.2718 19.08 41.6295 17.9347 41.661 16.578C41.1392 16.5144 40.614 16.4813 40.0883 16.479ZM22.5833 16.7153C22.1425 16.7186 21.7035 16.7699 21.2738 16.8683C20.4196 17.0697 19.5952 17.3813 18.8213 17.7952C18.5618 17.9303 18.3143 18.087 18.0788 18.2655L18.0338 18.306C18.0473 18.6075 18.108 19.3387 18.135 20.412C18.1575 21.5887 18.1305 23.0895 17.8965 24.7095C17.388 28.2375 20.025 31.158 23.1255 31.1625C23.3055 30.438 23.6048 29.7045 23.9018 28.9305C24.7658 26.6737 26.4645 25.029 25.0335 18.6052C24.7995 17.5545 24.336 17.1293 23.697 16.8885C23.3392 16.7643 22.9619 16.7056 22.5833 16.7153ZM39.4133 17.136H39.5213C39.6623 17.1405 39.7898 17.1555 39.9038 17.181C40.0073 17.2018 40.1063 17.2406 40.1963 17.2957C40.2373 17.3199 40.2727 17.3524 40.3002 17.3912C40.3277 17.43 40.3468 17.4741 40.356 17.5208V17.5387C40.3619 17.6376 40.3351 17.7357 40.2795 17.8177C40.2168 17.9312 40.1379 18.035 40.0455 18.126C39.8275 18.3574 39.54 18.5114 39.2265 18.5648C38.9193 18.6011 38.6092 18.5252 38.3535 18.351C38.2506 18.283 38.1575 18.2013 38.0768 18.108C38.0085 18.0352 37.9618 17.9448 37.9418 17.847C37.9369 17.7989 37.9424 17.7503 37.9579 17.7045C37.9734 17.6587 37.9986 17.6167 38.0318 17.5815C38.1037 17.506 38.1882 17.4436 38.2815 17.397C38.6379 17.2334 39.0236 17.1431 39.4155 17.1315L39.4133 17.136ZM22.7903 17.4825C22.9028 17.4825 23.0205 17.4915 23.1435 17.5095C23.4675 17.5545 23.7578 17.6377 23.9783 17.7615C24.0863 17.817 24.1808 17.8898 24.2618 17.9798C24.3038 18.0293 24.3353 18.084 24.3563 18.144C24.3773 18.204 24.384 18.2663 24.3765 18.3308C24.3561 18.4501 24.3005 18.5605 24.2168 18.648C24.1297 18.7528 24.0273 18.8438 23.913 18.918C23.6336 19.1083 23.2946 19.1906 22.959 19.1497C22.6186 19.0948 22.3055 18.9296 22.068 18.6795C21.9693 18.5788 21.8846 18.4653 21.816 18.342C21.746 18.2341 21.715 18.1055 21.7283 17.9775C21.7598 17.7525 21.951 17.64 22.1333 17.5725C22.344 17.5057 22.5652 17.4782 22.7858 17.4915L22.7903 17.4825ZM42.0503 32.6295H42.0435C41.7308 32.742 41.4743 32.787 41.256 32.877C41.0386 32.9576 40.8584 33.1154 40.7498 33.3202C40.6148 33.5565 40.5023 33.9772 40.536 34.6927C40.633 34.7567 40.7392 34.8053 40.851 34.8368C41.2133 34.9447 41.823 35.0168 42.5048 35.0055C43.8593 34.9897 45.5288 34.6838 46.4153 34.2833C47.142 33.9548 47.817 33.5273 48.42 33.0143C45.4568 33.6083 43.785 33.4508 42.7568 33.039C42.5032 32.9355 42.2653 32.7992 42.0503 32.6295ZM24.9773 32.8207H24.9323C24.8198 32.8298 24.6555 32.8657 24.3405 33.2078C23.598 34.0133 23.3415 34.5173 22.7295 34.9897C22.122 35.4622 21.3278 35.712 19.7438 36.027C19.242 36.126 18.9563 36.2362 18.7628 36.324C18.8258 36.3735 18.819 36.387 18.9113 36.4342C19.143 36.558 19.4423 36.666 19.6808 36.7267C20.3625 36.891 21.4808 37.0845 22.6485 36.891C23.8163 36.6975 25.029 36.1553 26.064 34.7467C26.244 34.5037 26.262 34.1438 26.1158 33.7568C25.965 33.3743 25.641 33.0412 25.4115 32.9467C25.2746 32.8822 25.1278 32.8411 24.9773 32.8252V32.8207Z" fill="#919191"/>
</svg>
