<svg width="55" height="54" viewBox="0 0 55 54" fill="none" xmlns="http://www.w3.org/2000/svg">
<path d="M26.4 54C21.7322 54 17.2555 52.1794 13.9549 48.9388C10.6543 45.6982 8.79999 41.3029 8.79999 36.72C8.79999 32.1371 10.6543 27.7418 13.9549 24.5012C17.2555 21.2606 21.7322 19.44 26.4 19.44V54ZM26.4 0V17.28H8.79999V0H26.4ZM37.4 17.28C35.0661 17.28 32.8278 16.3697 31.1774 14.7494C29.5271 13.1291 28.6 10.9315 28.6 8.64C28.6 6.34853 29.5271 4.15091 31.1774 2.5306C32.8278 0.910283 35.0661 0 37.4 0C39.7339 0 41.9722 0.910283 43.6225 2.5306C45.2728 4.15091 46.2 6.34853 46.2 8.64C46.2 10.9315 45.2728 13.1291 43.6225 14.7494C41.9722 16.3697 39.7339 17.28 37.4 17.28Z" fill="#919191"/>
</svg>
