<svg width="15" height="54" viewBox="0 0 15 54" fill="none" xmlns="http://www.w3.org/2000/svg">
<path d="M-12.5 22.7475C-10.1396 22.7475 -8.21458 24.6375 -8.21458 27C-8.21458 29.25 -10.1396 31.1625 -12.5 31.1625C-14.8604 31.1625 -16.7854 29.25 -16.7854 27C-16.7854 24.6375 -14.8604 22.7475 -12.5 22.7475ZM-23.1104 45C-21.6667 45.855 -18.5042 44.55 -14.8604 41.175C-16.0521 39.8475 -17.2208 38.4075 -18.3208 36.9C-20.1674 36.7252 -22.0033 36.4549 -23.8208 36.09C-24.9896 40.905 -24.5542 44.2125 -23.1104 45ZM-21.4833 32.085L-22.1479 30.9375C-22.4 31.59 -22.6521 32.2425 -22.8125 32.8725C-22.1937 33.0075 -21.5062 33.12 -20.7958 33.2325L-21.4833 32.085ZM-6.49583 30.375L-4.63958 27L-6.49583 23.625C-7.18333 22.4325 -7.91667 21.375 -8.58125 20.3175C-9.81875 20.25 -11.125 20.25 -12.5 20.25C-13.875 20.25 -15.1812 20.25 -16.4187 20.3175C-17.0833 21.375 -17.8167 22.4325 -18.5042 23.625L-20.3604 27L-18.5042 30.375C-17.8167 31.5675 -17.0833 32.625 -16.4187 33.6825C-15.1812 33.75 -13.875 33.75 -12.5 33.75C-11.125 33.75 -9.81875 33.75 -8.58125 33.6825C-7.91667 32.625 -7.18333 31.5675 -6.49583 30.375ZM-12.5 15.255C-12.9354 15.75 -13.3937 16.2675 -13.8521 16.875H-11.1479C-11.6062 16.2675 -12.0646 15.75 -12.5 15.255ZM-12.5 38.745C-12.0646 38.25 -11.6062 37.7325 -11.1479 37.125H-13.8521C-13.3937 37.7325 -12.9354 38.25 -12.5 38.745ZM-1.9125 9.00002C-3.33333 8.14502 -6.49583 9.45002 -10.1396 12.825C-8.94792 14.1525 -7.77917 15.5925 -6.67917 17.1C-4.8 17.28 -2.94375 17.55 -1.17916 17.91C-0.0104141 13.095 -0.445831 9.78752 -1.9125 9.00002ZM-3.51667 21.915L-2.85209 23.0625C-2.6 22.41 -2.34792 21.7575 -2.1875 21.1275C-2.80625 20.9925 -3.49375 20.88 -4.20417 20.7675L-3.51667 21.915ZM-0.193748 6.05252C3.175 7.94252 3.54166 12.915 2.12083 18.72C7.94167 20.4075 12.1354 23.1975 12.1354 27C12.1354 30.8025 7.94167 33.5925 2.12083 35.28C3.54166 41.085 3.175 46.0575 -0.193748 47.9475C-3.53958 49.8375 -8.1 47.6775 -12.5 43.56C-16.9 47.6775 -21.4604 49.8375 -24.8292 47.9475C-28.175 46.0575 -28.5417 41.085 -27.1208 35.28C-32.9417 33.5925 -37.1354 30.8025 -37.1354 27C-37.1354 23.1975 -32.9417 20.4075 -27.1208 18.72C-28.5417 12.915 -28.175 7.94252 -24.8292 6.05252C-21.4604 4.16252 -16.9 6.32252 -12.5 10.44C-8.1 6.32252 -3.53958 4.16252 -0.193748 6.05252ZM-0.858334 27C-0.0791664 28.6875 0.608334 30.375 1.18125 32.085C5.99375 30.6675 8.69791 28.6425 8.69791 27C8.69791 25.3575 5.99375 23.3325 1.18125 21.915C0.608334 23.625 -0.0791664 25.3125 -0.858334 27ZM-24.1417 27C-24.9208 25.3125 -25.6083 23.625 -26.1812 21.915C-30.9937 23.3325 -33.6979 25.3575 -33.6979 27C-33.6979 28.6425 -30.9937 30.6675 -26.1812 32.085C-25.6083 30.375 -24.9208 28.6875 -24.1417 27ZM-3.51667 32.085L-4.20417 33.2325C-3.49375 33.12 -2.80625 33.0075 -2.1875 32.8725C-2.34792 32.2425 -2.6 31.59 -2.85209 30.9375L-3.51667 32.085ZM-10.1396 41.175C-6.49583 44.55 -3.33333 45.855 -1.9125 45C-0.445831 44.2125 -0.0104141 40.905 -1.17916 36.09C-2.94375 36.45 -4.8 36.72 -6.67917 36.9C-7.77917 38.4075 -8.94792 39.8475 -10.1396 41.175ZM-21.4833 21.915L-20.7958 20.7675C-21.5062 20.88 -22.1937 20.9925 -22.8125 21.1275C-22.6521 21.7575 -22.4 22.41 -22.1479 23.0625L-21.4833 21.915ZM-14.8604 12.825C-18.5042 9.45002 -21.6667 8.14502 -23.1104 9.00002C-24.5542 9.78752 -24.9896 13.095 -23.8208 17.91C-22.0033 17.5452 -20.1674 17.2748 -18.3208 17.1C-17.2208 15.5925 -16.0521 14.1525 -14.8604 12.825Z" fill="#919191"/>
</svg>
