<svg width="55" height="54" viewBox="0 0 55 54" fill="none" xmlns="http://www.w3.org/2000/svg">
<path d="M27.5 22.7475C29.8605 22.7475 31.7855 24.6375 31.7855 27C31.7855 29.25 29.8605 31.1625 27.5 31.1625C25.1396 31.1625 23.2146 29.25 23.2146 27C23.2146 24.6375 25.1396 22.7475 27.5 22.7475ZM16.8896 45C18.3334 45.855 21.4959 44.55 25.1396 41.175C23.948 39.8475 22.7792 38.4075 21.6792 36.9C19.8326 36.7252 17.9967 36.4548 16.1792 36.09C15.0105 40.905 15.4459 44.2125 16.8896 45ZM18.5167 32.085L17.8521 30.9375C17.6 31.59 17.348 32.2425 17.1875 32.8725C17.8063 33.0075 18.4938 33.12 19.2042 33.2325L18.5167 32.085ZM33.5042 30.375L35.3605 27L33.5042 23.625C32.8167 22.4325 32.0834 21.375 31.4188 20.3175C30.1813 20.25 28.875 20.25 27.5 20.25C26.125 20.25 24.8188 20.25 23.5813 20.3175C22.9167 21.375 22.1834 22.4325 21.4959 23.625L19.6396 27L21.4959 30.375C22.1834 31.5675 22.9167 32.625 23.5813 33.6825C24.8188 33.75 26.125 33.75 27.5 33.75C28.875 33.75 30.1813 33.75 31.4188 33.6825C32.0834 32.625 32.8167 31.5675 33.5042 30.375ZM27.5 15.255C27.0646 15.75 26.6063 16.2675 26.148 16.875H28.8521C28.3938 16.2675 27.9355 15.75 27.5 15.255ZM27.5 38.745C27.9355 38.25 28.3938 37.7325 28.8521 37.125H26.148C26.6063 37.7325 27.0646 38.25 27.5 38.745ZM38.0875 8.99999C36.6667 8.14499 33.5042 9.44999 29.8605 12.825C31.0521 14.1525 32.2209 15.5925 33.3209 17.1C35.2 17.28 37.0563 17.55 38.8209 17.91C39.9896 13.095 39.5542 9.78749 38.0875 8.99999ZM36.4834 21.915L37.148 23.0625C37.4 22.41 37.6521 21.7575 37.8125 21.1275C37.1938 20.9925 36.5063 20.88 35.7959 20.7675L36.4834 21.915ZM39.8063 6.05249C43.175 7.94249 43.5417 12.915 42.1209 18.72C47.9417 20.4075 52.1355 23.1975 52.1355 27C52.1355 30.8025 47.9417 33.5925 42.1209 35.28C43.5417 41.085 43.175 46.0575 39.8063 47.9475C36.4605 49.8375 31.9 47.6775 27.5 43.56C23.1 47.6775 18.5396 49.8375 15.1709 47.9475C11.825 46.0575 11.4584 41.085 12.8792 35.28C7.05837 33.5925 2.86462 30.8025 2.86462 27C2.86462 23.1975 7.05837 20.4075 12.8792 18.72C11.4584 12.915 11.825 7.94249 15.1709 6.05249C18.5396 4.16249 23.1 6.32249 27.5 10.44C31.9 6.32249 36.4605 4.16249 39.8063 6.05249ZM39.1417 27C39.9209 28.6875 40.6084 30.375 41.1813 32.085C45.9938 30.6675 48.698 28.6425 48.698 27C48.698 25.3575 45.9938 23.3325 41.1813 21.915C40.6084 23.625 39.9209 25.3125 39.1417 27ZM15.8584 27C15.0792 25.3125 14.3917 23.625 13.8188 21.915C9.00629 23.3325 6.30212 25.3575 6.30212 27C6.30212 28.6425 9.00629 30.6675 13.8188 32.085C14.3917 30.375 15.0792 28.6875 15.8584 27ZM36.4834 32.085L35.7959 33.2325C36.5063 33.12 37.1938 33.0075 37.8125 32.8725C37.6521 32.2425 37.4 31.59 37.148 30.9375L36.4834 32.085ZM29.8605 41.175C33.5042 44.55 36.6667 45.855 38.0875 45C39.5542 44.2125 39.9896 40.905 38.8209 36.09C37.0563 36.45 35.2 36.72 33.3209 36.9C32.2209 38.4075 31.0521 39.8475 29.8605 41.175ZM18.5167 21.915L19.2042 20.7675C18.4938 20.88 17.8063 20.9925 17.1875 21.1275C17.348 21.7575 17.6 22.41 17.8521 23.0625L18.5167 21.915ZM25.1396 12.825C21.4959 9.44999 18.3334 8.14499 16.8896 8.99999C15.4459 9.78749 15.0105 13.095 16.1792 17.91C17.9967 17.5451 19.8326 17.2748 21.6792 17.1C22.7792 15.5925 23.948 14.1525 25.1396 12.825Z" fill="#919191"/>
</svg>
