<svg width="54" height="54" viewBox="0 0 54 54" fill="none" xmlns="http://www.w3.org/2000/svg">
<g clip-path="url(#clip0_15_23)">
<path d="M49.9928 26.514L26.514 49.9928C26.1094 50.4401 25.8921 51.0259 25.9072 51.6289C25.9223 52.2319 26.1686 52.8061 26.5951 53.2326C27.0217 53.6591 27.5958 53.9054 28.1989 53.9205C28.8019 53.9356 29.3876 53.7184 29.835 53.3138L53.3138 29.835C53.7184 29.3876 53.9356 28.8019 53.9205 28.1989C53.9054 27.5958 53.6591 27.0217 53.2326 26.5951C52.8061 26.1686 52.2319 25.9223 51.6289 25.9072C51.0259 25.8921 50.4401 26.1094 49.9928 26.514ZM45.297 0.686251L0.686251 45.297C0.281605 45.7444 0.0643691 46.3301 0.0794733 46.9331C0.0945775 47.5362 0.340866 48.1103 0.767401 48.5369C1.19394 48.9634 1.76809 49.2097 2.37111 49.2248C2.97413 49.2399 3.5599 49.0226 4.00725 48.618L48.618 4.00725C49.0226 3.5599 49.2399 2.97413 49.2248 2.37111C49.2097 1.76809 48.9634 1.19394 48.5369 0.767401C48.1103 0.340866 47.5362 0.0945775 46.9331 0.0794733C46.3301 0.0643691 45.7444 0.281605 45.297 0.686251Z" fill="#919191"/>
</g>
<defs>
<clipPath id="clip0_15_23">
<rect width="54" height="54" fill="white"/>
</clipPath>
</defs>
</svg>
