<svg width="20" height="54" viewBox="0 0 20 54" fill="none" xmlns="http://www.w3.org/2000/svg">
<g clip-path="url(#clip0_15_41)">
<path d="M22.7455 0V0.00084375C22.5624 -0.023625 19.6062 1.02178 17.7001 1.78242C15.1271 2.8118 13.1299 3.79308 11.8976 4.64273C11.4997 4.91991 11.015 5.38102 10.8341 5.64258L10.8311 5.63372C10.8195 5.6537 10.8096 5.67458 10.8014 5.69616C10.792 5.71303 10.7791 5.73244 10.7731 5.74678C10.739 5.83574 10.7222 5.93019 10.7237 6.02522L10.7512 6.05053C10.7585 6.13786 10.7791 6.23616 10.8233 6.34373C10.9316 6.6053 11.2479 6.92423 11.6062 7.25077C11.6062 7.25077 15.3106 10.7983 15.7605 11.305C17.8083 13.6266 18.6995 15.9148 18.7829 19.07C18.8331 21.0971 18.4408 22.8795 17.4667 24.9476C15.7351 28.6584 12.0806 32.754 6.4444 37.2984L6.52991 37.2701C6.49123 37.3005 6.44053 37.3435 6.40315 37.3722C5.72854 37.8953 4.72909 38.8762 4.2212 39.4976C3.46323 40.4295 2.86467 41.4184 2.60643 42.1786C2.14838 43.5518 2.37311 44.9411 3.25526 46.2244C4.38791 47.8592 6.6442 49.5277 9.27518 50.663C10.6158 51.2439 12.8708 51.9877 14.5698 52.404C17.3915 53.1073 22.8542 53.8675 25.859 53.9814C26.4665 54.0063 27.2821 54.0063 27.3156 53.9814C27.3822 53.9405 27.8489 53.0668 28.3903 51.9801C30.2379 48.2768 31.5695 44.8027 32.2944 41.8352C32.7271 40.0372 33.0683 37.6418 33.293 34.8055C33.3514 34.0124 33.3764 31.3559 33.3265 30.4568C33.2513 28.9858 33.119 27.7923 32.9106 26.6237C32.8946 26.5439 32.8846 26.4631 32.8805 26.382C39.5742 24.4295 46.9605 22.6606 51.8671 21.9236L52.6251 21.8092L52.5082 21.6287C51.8422 20.6149 51.3846 19.9859 50.835 19.3155C49.2365 17.3707 47.2974 15.7933 44.9242 14.4855C41.6607 12.6951 37.4395 11.2974 32.0946 10.2592C31.0874 10.063 28.8741 9.68667 27.0758 9.41709L26.9083 9.1222C25.9256 7.42205 24.8436 5.31394 24.2107 3.8918C23.72 2.78817 23.2533 1.51284 22.9955 0.597375C22.8537 0.0413438 22.8378 0.0084375 22.7455 0ZM22.6122 0.416812H22.6208C22.6286 0.42525 22.6617 0.65475 22.6952 0.924328C22.837 2.06845 23.0952 3.17208 23.5034 4.36556C23.8111 5.26416 23.8111 5.21564 23.4531 5.10933C22.6041 4.88067 18.7996 4.2352 16.0436 3.85889C15.6023 3.80194 15.2276 3.74456 15.2276 3.73612C15.1946 3.70322 17.2171 2.66583 18.1078 2.25703C19.2482 1.74234 22.3789 0.457734 22.6122 0.416812ZM14.5865 4.07953L14.9114 4.18584C16.6765 4.77436 21.1135 5.60883 23.561 5.805C23.836 5.82947 24.0689 5.85352 24.0766 5.85352C24.0852 5.86195 23.8532 5.9843 23.5528 6.12309C22.3712 6.70359 21.0714 7.41445 20.1725 7.96247C19.968 8.08734 19.7806 8.19281 19.6882 8.23584L18.8581 8.10295L18.0743 7.34906C17.062 6.38106 16.0436 5.41917 15.0192 4.46344L14.5865 4.07953ZM14.2535 4.3335L15.4274 5.77209C16.0685 6.56522 16.7178 7.34147 16.8592 7.51317C16.9842 7.66463 17.0753 7.77558 17.0925 7.80848C16.261 7.66631 15.3712 7.5098 14.6862 7.36467C14.1865 7.25836 13.2296 7.03772 12.4802 6.78459C12.4029 6.75506 12.3148 6.723 12.231 6.6922V6.60572C12.2396 6.05728 12.9469 5.23969 14.1453 4.40648L14.2535 4.3335ZM24.2107 6.29353C24.2176 6.29072 24.2233 6.29128 24.2279 6.29522C24.261 6.29522 24.3018 6.36778 24.4015 6.58842C24.6851 7.20141 25.5681 8.85262 25.7846 9.17156L25.8121 9.21544C24.2387 8.97091 22.6665 8.71919 21.0955 8.46028C21.1462 8.42387 21.1997 8.39116 21.2553 8.36241C22.1297 7.88822 23.0119 7.28367 23.7948 6.63778C23.986 6.48253 24.1604 6.33614 24.1944 6.31167C24.1979 6.30419 24.2036 6.29788 24.2107 6.29353ZM12.9795 7.67517C12.9877 7.66758 13.1209 7.71736 13.2958 7.77431C13.6946 7.90556 14.0972 8.02529 14.5032 8.13333C14.8685 8.232 15.2348 8.32734 15.6019 8.41936C16.1012 8.5417 16.518 8.65688 16.5257 8.65688C16.5846 8.71425 17.4255 11.3543 17.7087 12.3681C17.8169 12.752 17.9003 13.079 17.8921 13.079C17.8835 13.0874 17.7916 12.9482 17.6833 12.76C16.7092 11.0767 15.1692 9.36816 13.3873 7.99411C13.1544 7.83084 12.9791 7.68361 12.9791 7.67517H12.9795ZM17.0671 8.77964C17.0671 8.79567 17.0671 8.78808 17.0757 8.78808C17.1178 8.78808 17.3009 8.81213 17.5256 8.86106C18.9406 9.17156 21.48 9.64575 23.103 9.91575C23.378 9.95667 23.5941 10.006 23.5941 10.0221C23.5941 10.0389 23.4953 10.0959 23.3698 10.1613C23.0948 10.3005 21.9875 10.946 21.621 11.1907C20.6971 11.796 19.8648 12.4491 19.2654 13.0376C19.1168 13.1835 18.9668 13.3281 18.8155 13.4713C18.8155 13.4713 18.7661 13.3321 18.724 13.1604C18.4245 12.0239 17.8002 10.3406 17.2334 9.15511C17.1419 8.96737 17.0671 8.79567 17.0671 8.77964ZM24.2859 10.136C24.3353 10.1528 24.4191 10.4309 24.5854 11.0438C24.8976 12.2669 25.0322 13.5271 24.985 14.7871C24.9678 15.1305 24.951 15.4495 24.9343 15.4908L24.9098 15.5714L24.4771 15.4322C23.5864 15.1546 22.1379 14.7382 20.8978 14.3948C20.1897 14.2066 19.6152 14.0354 19.6152 14.0193C19.6152 13.97 20.6477 12.9562 21.089 12.5723C21.9295 11.8446 24.2103 10.1119 24.2859 10.136ZM24.8595 10.2182C24.8844 10.1938 28.3073 10.7734 29.8641 11.0679C31.0217 11.2885 32.703 11.6324 32.8031 11.6733C32.8526 11.6902 32.6781 11.7868 32.1199 12.0327C29.9221 13.0051 28.2897 13.8805 26.6664 14.9428C26.2418 15.2212 25.8835 15.4495 25.8757 15.4495C25.8671 15.4495 25.859 15.2124 25.859 14.9264C25.859 13.3734 25.5436 11.8041 24.9605 10.4798C24.9021 10.349 24.8514 10.2263 24.8595 10.2182ZM33.7094 11.9344C33.7343 11.9585 33.6264 12.6217 33.5263 13.014C33.2264 14.232 32.4194 16.0388 31.4294 17.739C31.2537 18.0411 31.0951 18.2862 31.0784 18.2942C31.0616 18.3022 30.8386 18.179 30.5799 18.0318C29.6144 17.4757 28.5149 16.9539 27.316 16.4632C26.983 16.324 26.6913 16.2097 26.6831 16.1928C26.6247 16.1443 29.3059 14.4032 30.7209 13.5692C31.8454 12.8988 33.6767 11.9019 33.7094 11.9344ZM34.3431 12.0327C34.4179 12.0327 35.933 12.4411 36.7236 12.6702C38.6804 13.2422 40.9277 14.0518 42.3929 14.7057L43.0005 14.9749L42.5768 15.0732C38.9975 15.8823 35.9326 16.8151 32.9767 17.9917C32.7353 18.09 32.5187 18.171 32.5024 18.171C32.486 18.171 32.5698 17.9837 32.6781 17.755C33.5689 15.8992 34.1425 13.962 34.2843 12.3103C34.2924 12.1551 34.3182 12.0327 34.3431 12.0327ZM19.2568 15.433C19.2817 15.4086 20.4389 15.6786 21.0637 15.8503C22.0133 16.1118 24.0281 16.7742 24.0281 16.8223C24.0281 16.8307 23.8025 17.0189 23.5361 17.2475C22.4455 18.1385 21.3962 19.0789 20.139 20.2724C19.7647 20.6238 19.4489 20.9094 19.4321 20.9094C19.4149 20.9094 19.4068 20.8609 19.4149 20.7955C19.6062 19.4223 19.5653 17.6567 19.2989 15.8667C19.2731 15.6376 19.2487 15.441 19.2568 15.433ZM43.5754 15.4579C43.5917 15.4744 43.0426 16.3236 42.6924 16.8058C42.1931 17.5091 41.4605 18.4414 39.804 20.4846C39.0741 21.3841 38.3471 22.286 37.623 23.19C37.2899 23.5988 37.0149 23.9422 37.0059 23.9422C36.9982 23.9422 36.8899 23.7946 36.7735 23.6153C35.841 22.2417 34.7251 21.0406 33.4013 19.9619C33.1998 19.7941 32.9947 19.6303 32.7864 19.4708C32.6944 19.4054 32.6188 19.34 32.6188 19.3316C32.6188 19.3075 34.0342 18.7106 35.1084 18.2858C36.9905 17.5335 39.5535 16.635 41.4772 16.054C42.4844 15.744 43.5587 15.4415 43.5754 15.4579ZM44.2165 15.6212C44.2496 15.6128 44.4498 15.7115 44.6909 15.8503C46.7143 16.9864 48.6956 18.4499 50.2609 19.9534C50.7022 20.3787 51.7923 21.4895 51.7756 21.4975C51.7756 21.4975 51.3927 21.5312 50.9433 21.5637C47.4383 21.8253 42.9511 22.5522 38.6392 23.574C38.347 23.6393 38.0892 23.6967 38.0724 23.6967C38.0556 23.6967 38.3801 23.3778 38.7883 22.9939C41.3191 20.5989 42.4763 19.0869 43.8414 16.389C44.033 15.9891 44.1997 15.6457 44.2165 15.6212ZM25.6764 17.485C25.7924 17.5095 26.8743 18.0077 27.6903 18.4085C28.4397 18.776 29.5642 19.3645 29.6222 19.4138C29.6308 19.4219 29.2312 19.626 28.7396 19.8636C27.2718 20.58 25.8357 21.3573 24.435 22.1932C24.0354 22.4303 23.7028 22.6264 23.6946 22.6264C23.6611 22.6264 23.6697 22.5935 23.8944 22.1932C24.6438 20.8529 25.2437 19.2506 25.5848 17.6892C25.6179 17.5669 25.6514 17.485 25.6764 17.485ZM24.5935 17.6808C24.6185 17.7052 24.3357 18.711 24.1604 19.2586C23.8188 20.2964 23.2447 21.5958 22.6866 22.5771C22.5534 22.8057 22.3536 23.1415 22.2453 23.3293L22.0373 23.6558L21.5715 23.2149C21.0301 22.7003 20.5889 22.3805 20.023 22.094C19.7978 21.9801 19.6233 21.8822 19.6233 21.8662C19.6233 21.8004 21.0473 20.5335 22.1379 19.618C22.9199 18.9557 24.5686 17.6563 24.5935 17.6808ZM31.2124 20.3538L31.6206 20.6153C32.5531 21.2119 33.6514 22.0054 34.4922 22.6994C34.9666 23.0833 35.8823 23.8933 36.0658 24.0891L36.1659 24.1954L35.4913 24.384C31.6782 25.4218 28.731 26.3452 25.2926 27.5877C24.9094 27.7269 24.5849 27.8408 24.56 27.8408C24.5102 27.8408 24.4685 27.8813 25.3262 27.1046C27.524 25.1189 29.4726 22.9289 30.9215 20.7955L31.2124 20.3538ZM29.4722 20.779C29.4894 20.7959 28.349 22.3725 27.6662 23.2635C26.8498 24.3262 25.4009 26.1082 24.4015 27.2687C23.9855 27.7514 23.628 28.1513 23.6108 28.1593C23.5859 28.1678 23.5773 28.0454 23.5773 27.8572C23.5773 26.8684 23.3199 25.8137 22.8705 24.9147C22.6789 24.5388 22.6458 24.4489 22.6879 24.408C22.846 24.2688 25.2677 22.9125 26.7991 22.1033C27.8321 21.5633 29.4477 20.763 29.4722 20.779ZM18.9492 23.3128C18.9737 23.3128 19.1649 23.4111 19.3819 23.5254C19.8885 23.7965 20.3679 24.1141 20.8136 24.4738C20.8308 24.4898 20.6142 24.662 20.331 24.8662C19.5404 25.4218 18.3416 26.3132 17.6421 26.8608C16.9094 27.4328 16.8845 27.4489 16.9674 27.3265C17.5174 26.5009 17.7924 26.0347 18.0838 25.4378C18.3518 24.8827 18.5853 24.3121 18.7829 23.7292C18.8495 23.493 18.9324 23.3128 18.9492 23.3128ZM21.755 25.4699C21.7967 25.4623 21.8465 25.5361 22.0708 25.863C22.5452 26.5579 22.9117 27.4902 23.0033 28.242L23.02 28.4048L21.8796 28.8385C19.8399 29.6148 17.9583 30.3834 16.6847 30.9563C16.2193 31.1703 15.7556 31.388 15.2938 31.6094C14.8856 31.8136 14.553 31.9693 14.553 31.9613C14.553 31.9532 14.8108 31.7651 15.1271 31.536C17.6167 29.7624 19.7733 27.8167 21.3885 25.8715C21.5634 25.6673 21.7215 25.4791 21.7378 25.4707L21.755 25.4699ZM20.4647 25.7808V25.7816C20.4982 25.8141 19.5486 26.8684 18.8993 27.5143C17.2923 29.1241 15.702 30.3834 13.7289 31.6094C13.4788 31.7647 13.2545 31.9035 13.2296 31.9195C13.1716 31.9524 13.2459 31.8705 14.1122 30.9471C14.6199 30.4122 15.1006 29.8533 15.5525 29.2722C15.8687 28.8714 15.9267 28.8141 16.3848 28.496C17.6094 27.6286 20.4316 25.7483 20.4647 25.7808ZM31.6254 26.7511C31.7431 27.197 31.9605 29.3355 32.0198 30.7509C32.037 31.0863 32.028 31.3069 32.0108 31.3069C31.9446 31.3069 30.6044 30.5307 29.6475 29.9417C28.8182 29.4292 27.2503 28.4086 26.9921 28.2066C28.5286 27.6975 30.0732 27.2123 31.6254 26.7511ZM26.0966 28.5196C26.2057 28.566 26.3694 28.6546 26.6999 28.855C28.4147 29.9097 30.7467 31.1846 31.7457 31.6098C32.0533 31.7406 32.0864 31.6913 31.3787 32.1659C29.8637 33.1792 27.9739 34.1761 25.6596 35.1814C25.2514 35.3611 24.9098 35.5004 24.9016 35.5004C24.8844 35.5004 24.9347 35.2953 25.0013 35.0502C25.5586 33.0147 25.8762 30.9559 25.8929 29.3047C25.8972 28.8925 25.8989 28.6888 25.9097 28.5846L26.0966 28.5196ZM24.8226 28.9647C24.863 29.1655 24.8316 30.8074 24.768 31.2825C24.619 32.4872 24.3631 33.677 24.0031 34.838C23.9112 35.1405 23.827 35.3945 23.8106 35.4105C23.7771 35.4514 22.6367 34.3558 22.2621 33.9306C21.6132 33.1948 21.1053 32.4599 20.7306 31.7406C20.5571 31.4073 20.3065 30.8104 20.2773 30.6783C21.5015 30.1904 22.7322 29.7186 23.9692 29.2629C24.2343 29.1651 24.5463 29.0634 24.8226 28.9647ZM19.4072 31.0319C19.4274 31.061 19.4773 31.1698 19.5237 31.3069C19.7901 32.0178 20.3886 33.064 20.9051 33.7344C21.4714 34.4701 22.2126 35.2552 22.8288 35.7699C23.0286 35.9332 23.2112 36.0889 23.2366 36.1133C23.2864 36.1627 23.3032 36.1543 21.9458 36.6614C20.3731 37.2499 18.6578 37.8384 16.6929 38.4594C16.2234 38.608 15.7543 38.7579 15.2856 38.9091C15.2105 38.9336 15.2367 38.8922 15.4528 38.5573C16.4269 37.0621 17.908 34.1276 18.7408 32.0511C18.8826 31.6912 19.0239 31.3314 19.0489 31.2495C19.0605 31.2095 19.0772 31.1863 19.0931 31.1605L19.4072 31.0319ZM17.6842 31.749C17.6274 31.9136 17.2661 32.6565 16.8927 33.3745C16.0849 34.9199 15.2027 36.4403 14.0206 38.2877C13.8204 38.6062 13.6296 38.9007 13.6039 38.9332C13.5626 38.9905 13.5458 38.9745 13.4122 38.7214C13.129 38.1729 12.8966 37.4705 12.7711 36.8246C12.6465 36.1872 12.6714 35.0755 12.8132 34.3887C12.8777 34.0862 12.906 33.9723 12.9679 33.8993C14.5201 33.141 16.0927 32.4239 17.6842 31.7486V31.749ZM32.0697 32.2553V32.5983C32.0697 34.4212 31.8699 36.9225 31.5785 38.745C31.5287 39.0639 31.487 39.3259 31.4789 39.3344C31.4789 39.3344 31.2369 39.2685 30.9542 39.1867C29.6276 38.7731 28.3452 38.234 27.1248 37.5768C26.317 37.1436 25.144 36.4319 25.1771 36.3994C25.1852 36.3909 25.5346 36.2116 25.9419 35.9986C27.5743 35.1654 29.1392 34.266 30.4966 33.3745C31.0045 33.0396 31.7697 32.5008 31.936 32.3536L32.0697 32.2553ZM11.424 34.6756C11.4558 34.6773 11.4464 34.7444 11.3974 35.0346C11.3559 35.3245 11.3254 35.6158 11.3059 35.9079C11.2393 37.1018 11.4391 37.9856 12.0385 39.1951C12.2052 39.5301 12.3384 39.8081 12.3298 39.8161C12.2718 39.8655 6.76022 41.4509 5.02858 41.9167C4.51252 42.0559 4.06307 42.1782 4.02956 42.1862C3.97112 42.2031 3.96295 42.1951 3.98788 42.0559C4.17952 40.8544 5.11237 39.285 6.41131 37.9607C7.2767 37.0778 7.96764 36.5626 9.14971 35.9007C9.54545 35.6797 10.0374 35.4101 10.4633 35.1793C10.7804 35.01 11.1006 34.8421 11.424 34.6756ZM24.4096 36.9554H24.4105C24.4191 36.947 24.618 37.0533 24.8595 37.1917C26.6414 38.2058 29.1224 39.1462 31.2369 39.6284L31.4281 39.6689L31.1622 39.8166C30.0553 40.4211 26.4163 41.9091 22.6952 43.2738C22.1538 43.47 21.6218 43.6662 21.5221 43.7071C21.422 43.748 21.3296 43.7725 21.3296 43.764C21.3296 43.7556 21.48 43.4696 21.6712 43.1182C22.7119 41.2054 23.7608 38.8762 24.294 37.2579C24.3606 37.1026 24.401 36.9638 24.4096 36.9554ZM23.0862 37.3798H23.0871C23.0956 37.3882 23.0286 37.5604 22.9453 37.7565C22.2208 39.4812 21.2716 41.3615 20.056 43.47C19.7484 44.01 19.4901 44.4428 19.482 44.4428C19.4738 44.4428 19.2237 44.2952 18.9234 44.1159C17.1591 43.0528 15.5933 41.745 14.5698 40.4781L14.4194 40.2983L15.1774 40.0942C17.8913 39.3668 20.1978 38.5822 22.4872 37.6177C22.8121 37.487 23.078 37.3798 23.0862 37.3798ZM31.3117 40.2005C31.3203 40.3886 30.8962 42.0723 30.5464 43.2903C30.2551 44.3121 30.005 45.1128 29.5465 46.5269C29.3472 47.1488 29.1727 47.663 29.1641 47.663C29.1555 47.663 29.1061 47.6554 29.0558 47.6394C26.5834 47.1977 24.3688 46.5843 22.2874 45.7671C21.7048 45.538 20.8724 45.1702 20.8222 45.1292C20.8058 45.1128 21.3051 44.8841 21.9381 44.6145C25.7262 42.9878 29.6553 41.1404 31.0045 40.3477C31.1626 40.2494 31.2868 40.2005 31.3117 40.2005ZM12.3221 40.8375C12.3393 40.8544 11.281 42.3499 9.79983 44.3855C9.28291 45.0967 8.68393 45.93 8.4592 46.2405C8.19909 46.6005 7.94638 46.9656 7.70123 47.3356L7.35147 47.8676L6.97721 47.5563C6.53592 47.1964 5.77022 46.4286 5.42862 46.0038C4.71276 45.1292 4.22936 44.2049 4.03815 43.3628C3.9462 42.9705 3.9462 42.7747 4.02956 42.7511C5.50498 42.405 6.98169 42.0641 8.45963 41.7285C9.45389 41.5037 10.4472 41.2749 11.4395 41.0421C11.9225 40.9278 12.3139 40.8375 12.3221 40.8375ZM13.3873 41.2383L13.6541 41.5323C14.853 42.8486 16.0763 43.821 17.5583 44.6711C17.8247 44.8187 18.0249 44.9491 18.0081 44.9575C17.9501 44.998 12.8631 46.7716 10.5071 47.5732C9.70124 47.8533 8.89355 48.1284 8.08409 48.3983C8.07592 48.3983 8.00073 48.349 7.9178 48.292L7.76741 48.1857L8.00932 47.8423C8.79135 46.7307 9.77405 45.5131 11.9135 42.9789L13.3873 41.2383ZM20.0315 45.9051C20.0397 45.8966 20.4054 46.0274 20.8557 46.1919C21.9381 46.5923 22.7949 46.8458 23.9439 47.1319C25.3592 47.4833 27.4076 47.8263 28.6154 47.925C28.7985 47.9406 28.8977 47.9571 28.8646 47.9815C28.8062 48.014 27.582 48.4152 26.6831 48.6928C25.251 49.1345 20.8806 50.4014 17.3172 51.4067C16.8991 51.5269 16.4801 51.6442 16.0604 51.7586C15.977 51.7746 15.702 51.7004 15.702 51.6679C15.702 51.6518 15.9018 51.3987 16.1433 51.1207C17.3421 49.7146 18.5328 48.1448 19.5237 46.6573C19.7987 46.2485 20.0315 45.9131 20.0315 45.9051ZM18.5655 45.9464H18.5663C18.5745 45.9548 17.9832 46.8859 16.9507 48.4882C16.5098 49.1666 16.0183 49.9361 15.8438 50.2052C15.6771 50.4668 15.4266 50.876 15.2852 51.1043L15.0446 51.5206L14.92 51.4886C14.6196 51.4063 12.5133 50.679 11.9551 50.4584C11.2938 50.2 10.6466 49.9083 10.016 49.5842C9.34995 49.2324 8.51764 48.7093 8.58424 48.6928C8.60057 48.6844 9.74096 48.3823 11.1147 48.0144C14.7606 47.0416 16.784 46.478 18.1078 46.0692C18.3493 45.9953 18.5573 45.938 18.5655 45.9464ZM28.9308 48.3325H28.9398C28.9729 48.4148 27.6237 52.0927 27.1321 53.2533C27.0247 53.5148 26.9826 53.5807 26.9242 53.5722C26.7824 53.5638 24.8269 53.295 23.6362 53.1233C21.5634 52.8128 18.0825 52.2163 17.2089 52.0197L17.0096 51.9788L18.2496 51.7008C20.9137 51.1123 22.1959 50.7938 23.4948 50.4014C25.1723 49.8977 26.8111 49.2774 28.3989 48.5452C28.6567 48.4313 28.8724 48.3414 28.9308 48.3334V48.3325Z" fill="#919191"/>
</g>
<defs>
<clipPath id="clip0_15_41">
<rect width="55" height="54" fill="white"/>
</clipPath>
</defs>
</svg>
