<svg width="55" height="54" viewBox="0 0 55 54" fill="none" xmlns="http://www.w3.org/2000/svg">
<g clip-path="url(#clip0_108_59)">
<path d="M22.7455 0V0.00084375C22.5625 -0.023625 19.6062 1.02178 17.7001 1.78242C15.1272 2.8118 13.13 3.79308 11.8976 4.64273C11.4997 4.91991 11.015 5.38102 10.8341 5.64258L10.8311 5.63372C10.8195 5.6537 10.8096 5.67458 10.8015 5.69616C10.792 5.71303 10.7791 5.73244 10.7731 5.74678C10.7391 5.83574 10.7223 5.93019 10.7237 6.02522L10.7512 6.05053C10.7585 6.13786 10.7791 6.23616 10.8234 6.34373C10.9317 6.6053 11.2479 6.92423 11.6063 7.25077C11.6063 7.25077 15.3106 10.7983 15.7605 11.305C17.8084 13.6266 18.6996 15.9148 18.7829 19.07C18.8332 21.0971 18.4409 22.8795 17.4668 24.9476C15.7352 28.6584 12.0807 32.754 6.44446 37.2984L6.52997 37.2701C6.4913 37.3005 6.44059 37.3435 6.40321 37.3722C5.7286 37.8953 4.72915 38.8762 4.22126 39.4976C3.46329 40.4295 2.86473 41.4184 2.60649 42.1786C2.14844 43.5518 2.37317 44.9411 3.25532 46.2244C4.38798 47.8592 6.64427 49.5277 9.27524 50.663C10.6159 51.2439 12.8709 51.9877 14.5699 52.404C17.3916 53.1073 22.8542 53.8675 25.859 53.9814C26.4666 54.0063 27.2822 54.0063 27.3157 53.9814C27.3823 53.9405 27.8489 53.0668 28.3903 51.9801C30.238 48.2768 31.5696 44.8027 32.2945 41.8352C32.7272 40.0372 33.0683 37.6418 33.2931 34.8055C33.3515 34.0124 33.3764 31.3559 33.3266 30.4568C33.2514 28.9858 33.119 27.7923 32.9106 26.6237C32.8947 26.5439 32.8846 26.4631 32.8806 26.382C39.5742 24.4295 46.9606 22.6606 51.8672 21.9236L52.6251 21.8092L52.5082 21.6287C51.8422 20.6149 51.3846 19.9859 50.835 19.3155C49.2366 17.3707 47.2974 15.7933 44.9243 14.4855C41.6608 12.6951 37.4395 11.2974 32.0947 10.2592C31.0875 10.063 28.8741 9.68667 27.0759 9.41709L26.9083 9.1222C25.9256 7.42205 24.8437 5.31394 24.2107 3.8918C23.72 2.78817 23.2534 1.51284 22.9956 0.597375C22.8538 0.0413438 22.8379 0.0084375 22.7455 0ZM22.6123 0.416812H22.6209C22.6286 0.42525 22.6617 0.65475 22.6952 0.924328C22.837 2.06845 23.0953 3.17208 23.5035 4.36556C23.8111 5.26416 23.8111 5.21564 23.4532 5.10933C22.6041 4.88067 18.7997 4.2352 16.0437 3.85889C15.6024 3.80194 15.2277 3.74456 15.2277 3.73612C15.1946 3.70322 17.2172 2.66583 18.1079 2.25703C19.2483 1.74234 22.379 0.457734 22.6123 0.416812ZM14.5866 4.07953L14.9115 4.18584C16.6766 4.77436 21.1136 5.60883 23.5611 5.805C23.8361 5.82947 24.069 5.85352 24.0767 5.85352C24.0853 5.86195 23.8532 5.9843 23.5529 6.12309C22.3713 6.70359 21.0715 7.41445 20.1725 7.96247C19.968 8.08734 19.7807 8.19281 19.6883 8.23584L18.8581 8.10295L18.0744 7.34906C17.062 6.38106 16.0437 5.41917 15.0193 4.46344L14.5866 4.07953ZM14.2536 4.3335L15.4275 5.77209C16.0686 6.56522 16.7179 7.34147 16.8592 7.51317C16.9843 7.66463 17.0754 7.77558 17.0925 7.80848C16.2611 7.66631 15.3712 7.5098 14.6863 7.36467C14.1866 7.25836 13.2297 7.03772 12.4803 6.78459C12.4029 6.75506 12.3149 6.723 12.2311 6.6922V6.60572C12.2397 6.05728 12.9469 5.23969 14.1453 4.40648L14.2536 4.3335ZM24.2107 6.29353C24.2176 6.29072 24.2234 6.29128 24.2279 6.29522C24.261 6.29522 24.3018 6.36778 24.4015 6.58842C24.6851 7.20141 25.5681 8.85262 25.7847 9.17156L25.8122 9.21544C24.2388 8.97091 22.6665 8.71919 21.0955 8.46028C21.1463 8.42387 21.1997 8.39116 21.2554 8.36241C22.1298 7.88822 23.0119 7.28367 23.7948 6.63778C23.986 6.48253 24.1605 6.33614 24.1944 6.31167C24.1979 6.30419 24.2036 6.29788 24.2107 6.29353ZM12.9796 7.67517C12.9877 7.66758 13.1209 7.71736 13.2958 7.77431C13.6946 7.90556 14.0973 8.02529 14.5032 8.13333C14.8686 8.232 15.2348 8.32734 15.602 8.41936C16.1013 8.5417 16.5181 8.65688 16.5258 8.65688C16.5847 8.71425 17.4256 11.3543 17.7087 12.3681C17.817 12.752 17.9004 13.079 17.8922 13.079C17.8836 13.0874 17.7916 12.9482 17.6834 12.76C16.7093 11.0768 15.1693 9.36816 13.3874 7.99411C13.1545 7.83084 12.9791 7.68361 12.9791 7.67517H12.9796ZM17.0672 8.77964C17.0672 8.79567 17.0672 8.78808 17.0758 8.78808C17.1179 8.78808 17.3009 8.81212 17.5257 8.86106C18.9406 9.17156 21.4801 9.64575 23.103 9.91575C23.378 9.95667 23.5941 10.006 23.5941 10.0221C23.5941 10.0389 23.4953 10.0959 23.3699 10.1613C23.0949 10.3005 21.9875 10.946 21.621 11.1907C20.6972 11.796 19.8649 12.4491 19.2655 13.0376C19.1169 13.1835 18.9669 13.3281 18.8156 13.4713C18.8156 13.4713 18.7662 13.3321 18.7241 13.1604C18.4246 12.0239 17.8002 10.3406 17.2335 9.15511C17.142 8.96738 17.0672 8.79567 17.0672 8.77964ZM24.2859 10.136C24.3354 10.1528 24.4191 10.4309 24.5854 11.0438C24.8977 12.2669 25.0322 13.5271 24.985 14.7871C24.9679 15.1305 24.9511 15.4495 24.9343 15.4908L24.9098 15.5714L24.4772 15.4322C23.5864 15.1546 22.1379 14.7382 20.8979 14.3948C20.1897 14.2066 19.6152 14.0354 19.6152 14.0193C19.6152 13.97 20.6478 12.9562 21.0891 12.5723C21.9295 11.8446 24.2103 10.1119 24.2859 10.136ZM24.8596 10.2182C24.8845 10.1938 28.3074 10.7734 29.8641 11.0679C31.0217 11.2885 32.7031 11.6324 32.8032 11.6733C32.8526 11.6902 32.6782 11.7868 32.12 12.0327C29.9222 13.0051 28.2898 13.8805 26.6664 14.9428C26.2419 15.2212 25.8835 15.4495 25.8758 15.4495C25.8672 15.4495 25.859 15.2124 25.859 14.9264C25.859 13.3734 25.5436 11.8041 24.9606 10.4798C24.9021 10.349 24.8514 10.2263 24.8596 10.2182ZM33.7094 11.9344C33.7343 11.9585 33.6265 12.6217 33.5264 13.014C33.2265 14.232 32.4195 16.0388 31.4295 17.739C31.2538 18.0411 31.0952 18.2862 31.0784 18.2942C31.0617 18.3022 30.8387 18.179 30.58 18.0318C29.6145 17.4758 28.5149 16.9539 27.3161 16.4632C26.9831 16.324 26.6913 16.2097 26.6832 16.1928C26.6247 16.1443 29.306 14.4032 30.7209 13.5692C31.8454 12.8988 33.6768 11.9019 33.7094 11.9344ZM34.3432 12.0327C34.418 12.0327 35.9331 12.4411 36.7237 12.6702C38.6805 13.2422 40.9277 14.0518 42.393 14.7057L43.0006 14.9749L42.5769 15.0732C38.9976 15.8823 35.9326 16.8151 32.9768 17.9917C32.7353 18.09 32.5188 18.171 32.5024 18.171C32.4861 18.171 32.5699 17.9837 32.6782 17.755C33.5689 15.8992 34.1425 13.962 34.2843 12.3103C34.2925 12.1551 34.3183 12.0327 34.3432 12.0327ZM19.2569 15.433C19.2818 15.4086 20.439 15.6786 21.0637 15.8503C22.0133 16.1118 24.0281 16.7742 24.0281 16.8223C24.0281 16.8307 23.8025 17.0189 23.5361 17.2475C22.4456 18.1385 21.3963 19.0789 20.139 20.2724C19.7648 20.6238 19.449 20.9094 19.4322 20.9094C19.415 20.9094 19.4068 20.8609 19.415 20.7955C19.6062 19.4223 19.5654 17.6567 19.299 15.8667C19.2732 15.6376 19.2487 15.441 19.2569 15.433ZM43.5755 15.4579C43.5918 15.4744 43.0427 16.3236 42.6925 16.8058C42.1932 17.5091 41.4606 18.4414 39.8041 20.4846C39.0742 21.3841 38.3471 22.286 37.623 23.19C37.29 23.5988 37.015 23.9422 37.006 23.9422C36.9982 23.9422 36.89 23.7946 36.7735 23.6153C35.8411 22.2417 34.7252 21.0406 33.4013 19.9619C33.1998 19.7941 32.9948 19.6303 32.7865 19.4708C32.6945 19.4054 32.6189 19.34 32.6189 19.3316C32.6189 19.3075 34.0343 18.7106 35.1085 18.2858C36.9905 17.5335 39.5536 16.635 41.4773 16.054C42.4845 15.744 43.5587 15.4415 43.5755 15.4579ZM44.2166 15.6212C44.2497 15.6127 44.4499 15.7115 44.6909 15.8503C46.7143 16.9864 48.6956 18.4499 50.261 19.9534C50.7023 20.3787 51.7924 21.4895 51.7756 21.4975C51.7756 21.4975 51.3928 21.5312 50.9433 21.5637C47.4384 21.8253 42.9511 22.5522 38.6392 23.574C38.347 23.6393 38.0892 23.6967 38.0725 23.6967C38.0557 23.6967 38.3801 23.3778 38.7883 22.9939C41.3192 20.5989 42.4763 19.0869 43.8414 16.389C44.0331 15.9891 44.1998 15.6457 44.2166 15.6212ZM25.6764 17.485C25.7924 17.5095 26.8744 18.0077 27.6904 18.4085C28.4397 18.776 29.5642 19.3645 29.6222 19.4138C29.6308 19.4219 29.2312 19.626 28.7397 19.8636C27.2719 20.58 25.8357 21.3573 24.435 22.1932C24.0354 22.4302 23.7029 22.6264 23.6947 22.6264C23.6612 22.6264 23.6698 22.5935 23.8945 22.1932C24.6439 20.8529 25.2437 19.2506 25.5849 17.6892C25.618 17.5669 25.6515 17.485 25.6764 17.485ZM24.5936 17.6808C24.6185 17.7052 24.3358 18.711 24.1605 19.2586C23.8189 20.2964 23.2448 21.5958 22.6866 22.5771C22.5534 22.8057 22.3536 23.1415 22.2454 23.3293L22.0374 23.6558L21.5716 23.2149C21.0302 22.7002 20.5889 22.3805 20.023 22.094C19.7979 21.9801 19.6234 21.8822 19.6234 21.8662C19.6234 21.8004 21.0474 20.5335 22.1379 19.618C22.92 18.9557 24.5687 17.6563 24.5936 17.6808ZM31.2125 20.3538L31.6207 20.6153C32.5531 21.2119 33.6514 22.0054 34.4923 22.6994C34.9667 23.0833 35.8823 23.8933 36.0658 24.0891L36.1659 24.1954L35.4913 24.384C31.6783 25.4218 28.7311 26.3452 25.2927 27.5877C24.9094 27.7269 24.585 27.8408 24.5601 27.8408C24.5102 27.8408 24.4686 27.8813 25.3262 27.1046C27.5241 25.1189 29.4727 22.9289 30.9216 20.7955L31.2125 20.3538ZM29.4723 20.779C29.4895 20.7959 28.3491 22.3725 27.6663 23.2635C26.8499 24.3262 25.401 26.1082 24.4015 27.2687C23.9856 27.7514 23.6281 28.1513 23.6109 28.1593C23.586 28.1678 23.5774 28.0454 23.5774 27.8572C23.5774 26.8684 23.32 25.8137 22.8706 24.9147C22.6789 24.5388 22.6458 24.4489 22.6879 24.408C22.8461 24.2688 25.2678 22.9125 26.7992 22.1033C27.8322 21.5633 29.4478 20.763 29.4723 20.779ZM18.9492 23.3128C18.9737 23.3128 19.1649 23.4111 19.3819 23.5254C19.8885 23.7965 20.3679 24.1141 20.8136 24.4738C20.8308 24.4898 20.6143 24.662 20.3311 24.8662C19.5405 25.4218 18.3416 26.3132 17.6421 26.8608C16.9095 27.4328 16.8846 27.4489 16.9675 27.3265C17.5175 26.5009 17.7925 26.0348 18.0838 25.4378C18.3518 24.8827 18.5853 24.3121 18.7829 23.7292C18.8495 23.493 18.9325 23.3128 18.9492 23.3128ZM21.7551 25.4699C21.7968 25.4623 21.8466 25.5361 22.0709 25.863C22.5453 26.5579 22.9118 27.4902 23.0033 28.242L23.0201 28.4048L21.8797 28.8385C19.84 29.6148 17.9584 30.3834 16.6848 30.9563C16.2193 31.1703 15.7557 31.388 15.2939 31.6094C14.8857 31.8136 14.5531 31.9693 14.5531 31.9613C14.5531 31.9532 14.8109 31.7651 15.1272 31.536C17.6168 29.7624 19.7734 27.8168 21.3886 25.8715C21.5634 25.6673 21.7216 25.4791 21.7379 25.4707L21.7551 25.4699ZM20.4647 25.7808V25.7816C20.4982 25.8141 19.5486 26.8684 18.8994 27.5143C17.2924 29.1241 15.7021 30.3834 13.729 31.6094C13.4789 31.7647 13.2546 31.9035 13.2297 31.9195C13.1716 31.9524 13.246 31.8705 14.1122 30.9471C14.6199 30.4122 15.1006 29.8533 15.5525 29.2722C15.8688 28.8714 15.9268 28.8141 16.3849 28.496C17.6095 27.6286 20.4316 25.7483 20.4647 25.7808ZM31.6254 26.7511C31.7432 27.197 31.9606 29.3355 32.0199 30.7509C32.0371 31.0863 32.0281 31.3069 32.0109 31.3069C31.9447 31.3069 30.6045 30.5307 29.6476 29.9417C28.8183 29.4292 27.2504 28.4086 26.9921 28.2066C28.5287 27.6975 30.0733 27.2123 31.6254 26.7511ZM26.0966 28.5196C26.2058 28.566 26.3695 28.6546 26.6999 28.855C28.4148 29.9097 30.7467 31.1846 31.7457 31.6098C32.0534 31.7406 32.0865 31.6913 31.3788 32.1659C29.8637 33.1792 27.974 34.1761 25.6597 35.1814C25.2515 35.3611 24.9098 35.5004 24.9017 35.5004C24.8845 35.5004 24.9348 35.2953 25.0014 35.0502C25.5587 33.0147 25.8762 30.9559 25.893 29.3047C25.8973 28.8925 25.899 28.6888 25.9097 28.5846L26.0966 28.5196ZM24.8226 28.9647C24.863 29.1655 24.8316 30.8074 24.7681 31.2825C24.619 32.4872 24.3631 33.677 24.0032 34.838C23.9113 35.1405 23.827 35.3945 23.8107 35.4105C23.7772 35.4514 22.6368 34.3558 22.2621 33.9306C21.6133 33.1948 21.1054 32.4599 20.7307 31.7406C20.5571 31.4073 20.3066 30.8104 20.2774 30.6783C21.5015 30.1904 22.7323 29.7186 23.9693 29.2629C24.2344 29.1651 24.5463 29.0634 24.8226 28.9647ZM19.4073 31.0319C19.4275 31.061 19.4773 31.1698 19.5237 31.3069C19.7901 32.0178 20.3887 33.064 20.9052 33.7344C21.4715 34.4701 22.2127 35.2553 22.8289 35.7699C23.0287 35.9332 23.2113 36.0889 23.2366 36.1133C23.2865 36.1627 23.3032 36.1543 21.9459 36.6614C20.3732 37.2499 18.6579 37.8384 16.6929 38.4594C16.2234 38.608 15.7544 38.7579 15.2857 38.9091C15.2105 38.9336 15.2367 38.8922 15.4529 38.5573C16.427 37.0621 17.9081 34.1276 18.7408 32.0511C18.8826 31.6912 19.024 31.3314 19.0489 31.2495C19.0605 31.2095 19.0773 31.1863 19.0932 31.1605L19.4073 31.0319ZM17.6842 31.749C17.6275 31.9136 17.2661 32.6565 16.8927 33.3745C16.0849 34.9199 15.2028 36.4403 14.0207 38.2877C13.8205 38.6062 13.6297 38.9007 13.6039 38.9332C13.5627 38.9905 13.5459 38.9745 13.4123 38.7214C13.1291 38.1729 12.8966 37.4705 12.7712 36.8246C12.6466 36.1872 12.6715 35.0755 12.8133 34.3887C12.8777 34.0862 12.9061 33.9723 12.968 33.8993C14.5201 33.141 16.0928 32.4239 17.6842 31.7486V31.749ZM32.0697 32.2553V32.5983C32.0697 34.4212 31.8699 36.9225 31.5786 38.745C31.5288 39.0639 31.4871 39.3259 31.4789 39.3344C31.4789 39.3344 31.237 39.2685 30.9543 39.1867C29.6277 38.7731 28.3452 38.234 27.1249 37.5768C26.3171 37.1436 25.144 36.4319 25.1771 36.3994C25.1853 36.3909 25.5346 36.2116 25.942 35.9986C27.5743 35.1654 29.1393 34.266 30.4966 33.3745C31.0045 33.0396 31.7698 32.5008 31.9361 32.3536L32.0697 32.2553ZM11.4241 34.6756C11.4559 34.6773 11.4465 34.7444 11.3975 35.0346C11.3559 35.3245 11.3254 35.6158 11.3059 35.9079C11.2393 37.1018 11.4391 37.9856 12.0386 39.1951C12.2053 39.5301 12.3385 39.8081 12.3299 39.8161C12.2719 39.8655 6.76028 41.4509 5.02864 41.9167C4.51259 42.0559 4.06313 42.1782 4.02962 42.1862C3.97118 42.2031 3.96302 42.1951 3.98794 42.0559C4.17958 40.8544 5.11243 39.285 6.41137 37.9607C7.27676 37.0778 7.9677 36.5626 9.14977 35.9007C9.54551 35.6797 10.0375 35.4101 10.4633 35.1793C10.7804 35.01 11.1007 34.8421 11.4241 34.6756ZM24.4097 36.9554H24.4106C24.4191 36.947 24.6181 37.0533 24.8596 37.1917C26.6415 38.2058 29.1225 39.1462 31.237 39.6284L31.4282 39.6689L31.1622 39.8166C30.0554 40.4211 26.4163 41.9091 22.6952 43.2738C22.1538 43.47 21.6219 43.6662 21.5222 43.7071C21.4221 43.748 21.3297 43.7725 21.3297 43.764C21.3297 43.7556 21.4801 43.4696 21.6713 43.1182C22.712 41.2054 23.7609 38.8762 24.2941 37.2579C24.3607 37.1026 24.4011 36.9638 24.4097 36.9554ZM23.0863 37.3798H23.0871C23.0957 37.3882 23.0287 37.5604 22.9453 37.7565C22.2209 39.4812 21.2717 41.3615 20.0561 43.47C19.7484 44.01 19.4902 44.4428 19.482 44.4428C19.4739 44.4428 19.2238 44.2952 18.9234 44.1159C17.1591 43.0528 15.5934 41.745 14.5699 40.4781L14.4195 40.2983L15.1774 40.0942C17.8913 39.3668 20.1979 38.5822 22.4873 37.6177C22.8121 37.487 23.0781 37.3798 23.0863 37.3798ZM31.3118 40.2005C31.3204 40.3886 30.8963 42.0723 30.5465 43.2903C30.2552 44.3121 30.0051 45.1128 29.5466 46.5269C29.3472 47.1488 29.1728 47.663 29.1642 47.663C29.1556 47.663 29.1062 47.6554 29.0559 47.6394C26.5835 47.1977 24.3689 46.5843 22.2875 45.7671C21.7048 45.538 20.8725 45.1702 20.8222 45.1292C20.8059 45.1128 21.3052 44.8841 21.9381 44.6145C25.7263 42.9878 29.6553 41.1404 31.0045 40.3477C31.1627 40.2494 31.2868 40.2005 31.3118 40.2005ZM12.3222 40.8375C12.3393 40.8544 11.281 42.3499 9.79989 44.3855C9.28298 45.0967 8.68399 45.93 8.45926 46.2405C8.19915 46.6005 7.94645 46.9656 7.7013 47.3356L7.35153 47.8676L6.97727 47.5563C6.53598 47.1964 5.77028 46.4286 5.42868 46.0038C4.71282 45.1292 4.22942 44.2049 4.03821 43.3628C3.94626 42.9705 3.94626 42.7747 4.02962 42.7511C5.50504 42.405 6.98175 42.0641 8.45969 41.7285C9.45395 41.5037 10.4472 41.2749 11.4396 41.0421C11.9225 40.9278 12.314 40.8375 12.3222 40.8375ZM13.3874 41.2383L13.6542 41.5323C14.853 42.8486 16.0763 43.821 17.5583 44.6711C17.8247 44.8187 18.025 44.9491 18.0082 44.9575C17.9502 44.998 12.8631 46.7716 10.5072 47.5732C9.7013 47.8533 8.89361 48.1284 8.08415 48.3983C8.07598 48.3983 8.00079 48.349 7.91786 48.292L7.76747 48.1857L8.00938 47.8423C8.79141 46.7307 9.77411 45.5131 11.9135 42.9789L13.3874 41.2383ZM20.0316 45.9051C20.0398 45.8966 20.4054 46.0274 20.8557 46.1919C21.9381 46.5923 22.7949 46.8458 23.9439 47.1319C25.3593 47.4833 27.4076 47.8263 28.6155 47.925C28.7985 47.9406 28.8978 47.9571 28.8647 47.9815C28.8063 48.014 27.5821 48.4152 26.6832 48.6928C25.251 49.1345 20.8807 50.4014 17.3173 51.4067C16.8992 51.5269 16.4802 51.6442 16.0604 51.7586C15.9771 51.7746 15.7021 51.7004 15.7021 51.6679C15.7021 51.6518 15.9019 51.3987 16.1434 51.1207C17.3422 49.7146 18.5329 48.1448 19.5237 46.6573C19.7987 46.2485 20.0316 45.9131 20.0316 45.9051ZM18.5655 45.9464H18.5664C18.5745 45.9548 17.9833 46.8859 16.9507 48.4882C16.5099 49.1666 16.0183 49.9361 15.8439 50.2052C15.6772 50.4668 15.4266 50.876 15.2853 51.1043L15.0447 51.5206L14.92 51.4886C14.6197 51.4063 12.5134 50.679 11.9552 50.4584C11.2939 50.2 10.6466 49.9083 10.016 49.5842C9.35001 49.2324 8.5177 48.7093 8.5843 48.6928C8.60063 48.6844 9.74102 48.3823 11.1147 48.0144C14.7606 47.0416 16.784 46.478 18.1079 46.0692C18.3494 45.9953 18.5574 45.938 18.5655 45.9464ZM28.9309 48.3325H28.9399C28.973 48.4148 27.6238 52.0927 27.1322 53.2533C27.0248 53.5148 26.9827 53.5807 26.9242 53.5722C26.7824 53.5638 24.8269 53.295 23.6363 53.1233C21.5634 52.8128 18.0825 52.2163 17.209 52.0197L17.0096 51.9788L18.2497 51.7008C20.9138 51.1123 22.1959 50.7938 23.4949 50.4014C25.1724 49.8977 26.8112 49.2774 28.3989 48.5452C28.6567 48.4312 28.8724 48.3414 28.9309 48.3334V48.3325Z" fill="#919191"/>
</g>
<defs>
<clipPath id="clip0_108_59">
<rect width="55" height="54" fill="white"/>
</clipPath>
</defs>
</svg>
