<svg width="55" height="54" viewBox="0 0 55 54" fill="none" xmlns="http://www.w3.org/2000/svg">
<g clip-path="url(#clip0_15_27)">
<path d="M13.7921 25.9289C13.5773 28.5848 15.9538 30.541 17.5756 30.541C19.1997 30.4667 25.525 25.2332 25.525 25.2332C28.5 21.5391 28.5129 19.8966 28.5129 18.6055C28.2647 12.9057 17.688 21.5871 13.7921 25.9289ZM39.9563 23.7227C41.392 20.7394 39.4605 17.4259 35.259 20.3363C31.9203 22.4197 27.598 26.7057 25.5293 28.3835C24.5699 30.2863 27.0021 35.5081 30.8564 32.751C35.4122 29.5013 38.739 26.4456 39.9563 23.7227ZM43.8665 5.6757L44.7917 0H55V10.3606L51.2588 10.4045L46.7541 25.3846C47.0345 30.6716 44.3038 30.7576 43.955 33.1835C43.0783 39.2807 36.1336 44.2696 33.4785 44.2696C31.7076 44.2191 30.4131 42.2264 29.9782 40.49C34.9712 35.0678 41.6855 30.8068 41.6855 30.8068C42.1048 27.9552 41.1833 27.0474 44.2822 24.6175L47.2393 9.35213C44.7138 7.71472 43.5354 7.74014 43.8665 5.6757ZM23.9411 30.9566C26.5302 36.0785 30.2712 36.2121 36.0712 29.691C36.209 30.2939 36.3599 30.9255 36.083 32.4422C24.2842 42.8033 13.1714 52.8873 9.78882 54H0V51.4223C1.59199 49.2547 14.6575 38.6742 23.9411 30.9566ZM41.3787 40.8738C40.8475 45.3073 36.7305 49.1868 31.2293 54H13.7943L28.4926 41.8442C31.0299 47.5137 35.5367 46.6924 41.3788 40.8738M20.7604 30.8106L0 48.1838V36.9124L12.2171 27.1477C12.8706 30.7822 16.8744 33.9827 20.7604 30.8108" fill="#919191"/>
</g>
<defs>
<clipPath id="clip0_15_27">
<rect width="55" height="54" fill="white"/>
</clipPath>
</defs>
</svg>
