<svg width="55" height="54" viewBox="0 0 55 54" fill="none" xmlns="http://www.w3.org/2000/svg">
<path d="M27.5 13.5C21.3813 13.5 17.5771 16.4925 16.0417 22.5C18.3333 19.5075 21.0146 18.3825 24.0625 19.125C25.8042 19.5525 27.0646 20.79 28.4396 22.1625C30.6854 24.4125 33.2292 27 38.9583 27C45.0771 27 48.8813 24.0075 50.4167 18C48.125 20.9925 45.4438 22.1175 42.3958 21.375C40.6542 20.9475 39.4167 19.71 38.0188 18.3375C35.7729 16.0875 33.2292 13.5 27.5 13.5ZM16.0417 27C9.92293 27 6.11876 29.9925 4.58334 36C6.87501 33.0075 9.55626 31.8825 12.6042 32.625C14.3458 33.0525 15.5833 34.29 16.9813 35.6625C19.2271 37.9125 21.7708 40.5 27.5 40.5C33.6188 40.5 37.4229 37.5075 38.9583 31.5C36.6667 34.4925 33.9854 35.6175 30.9375 34.875C29.1958 34.4475 27.9583 33.21 26.5604 31.8375C24.3146 29.5875 21.7708 27 16.0417 27Z" fill="#919191"/>
</svg>
