<svg width="54" height="54" viewBox="0 0 54 54" fill="none" xmlns="http://www.w3.org/2000/svg">
<path d="M43.0448 6.75H10.9553C8.8065 6.75 7.06275 8.52075 7.06275 10.7055V43.2945C7.06275 45.477 8.8065 47.25 10.9553 47.25H43.0448C45.1958 47.25 46.9373 45.4793 46.9373 43.2945V10.7055C46.9373 8.523 45.1958 6.75 43.0448 6.75ZM30.1928 29.214H25.209V43.6905H21.2378V29.214H16.2518V25.9718H30.1928V29.214ZM43.0448 41.0872C42.732 41.8005 42.1965 42.3293 41.5643 42.75C40.8938 43.1646 40.1559 43.4585 39.384 43.6185C38.5133 43.8018 37.6256 43.8923 36.7358 43.8885C35.8218 43.8913 34.9095 43.8085 34.011 43.641C33.2264 43.5029 32.4656 43.2528 31.752 42.8985V39.0983L31.6035 38.979L31.752 38.9453V39.0983C32.4135 39.6338 33.1425 40.0425 33.939 40.3245C34.7198 40.6238 35.5748 40.7745 36.432 40.7745C36.9765 40.7745 37.3905 40.7272 37.7573 40.6395C38.0868 40.5644 38.402 40.4368 38.691 40.2615C38.9211 40.1221 39.1116 39.9262 39.2445 39.6923C39.382 39.4322 39.444 39.1388 39.4233 38.8453C39.4026 38.5518 39.3001 38.27 39.1275 38.0317C38.9172 37.7342 38.6532 37.4786 38.349 37.278C37.9821 37.0183 37.5901 36.796 37.179 36.6143C36.7133 36.4005 36.2385 36.1777 35.7008 35.9573C34.3755 35.325 33.3315 34.6928 32.6633 33.8197C31.986 33.0322 31.6508 32.0018 31.6508 30.816C31.6508 29.8665 31.8308 29.106 32.1953 28.4422C32.5845 27.7312 33.0435 27.2092 33.6758 26.7817C34.299 26.3475 34.9988 26.0303 35.856 25.8323C36.711 25.6343 37.5705 25.533 38.5043 25.533C39.438 25.533 40.2188 25.587 40.9185 25.6972C41.6183 25.8097 42.273 25.983 42.8648 26.2125V29.9295C42.5734 29.7159 42.2604 29.5334 41.931 29.385C41.2342 29.0827 40.5003 28.8746 39.7485 28.7663C39.4133 28.7161 39.0749 28.6913 38.736 28.692C38.3177 28.6864 37.9001 28.7294 37.4918 28.8202C37.1612 28.8862 36.8445 29.0087 36.5558 29.1825C36.3205 29.323 36.1204 29.5154 35.9708 29.745C35.8315 29.9649 35.7589 30.2205 35.7615 30.4807C35.7615 30.7717 35.8395 31.035 35.9955 31.2705C36.15 31.4985 36.3713 31.7205 36.6593 31.9365C36.9158 32.1413 37.2668 32.3483 37.6718 32.553C38.1375 32.7578 38.5583 32.9648 39.0735 33.1785C39.7733 33.4778 40.3965 33.8108 40.941 34.128C41.4878 34.443 41.9468 34.8142 42.3428 35.235C42.7635 35.6287 43.0673 36.1057 43.2788 36.6592C43.4903 37.2127 43.5983 37.836 43.5983 38.556C43.5983 39.5842 43.3553 40.3762 43.0448 41.0872Z" fill="#919191"/>
</svg>
